<?xml version="1.0" encoding="UTF-8" standalone="no"?><!DOCTYPE svg PUBLIC "-//W3C//DTD SVG 1.1//EN" "http://www.w3.org/Graphics/SVG/1.1/DTD/svg11.dtd"><svg width="100%" height="100%" viewBox="0 0 105 100" version="1.1" xmlns="http://www.w3.org/2000/svg" xmlns:xlink="http://www.w3.org/1999/xlink" xml:space="preserve" xmlns:serif="http://www.serif.com/" style="fill-rule:evenodd;clip-rule:evenodd;stroke-linejoin:round;stroke-miterlimit:1.41421;"><rect id="Artboard2" x="0" y="0" width="104.814" height="100" style="fill:none;"/><g><path d="M16.897,89.909l0,-29.231c-0.412,0 -0.823,0 -1.441,0c-0.823,0 -1.647,0 -2.676,0.412c0.618,-11.734 4.529,-23.262 11.116,-31.702c1.441,0 2.882,-0.617 4.117,-1.441c15.851,-13.174 33.966,-12.145 48.376,2.882c1.235,1.441 3.088,2.059 4.941,2.059c0.617,0 1.235,-0.206 1.852,-0.206c5.353,8.234 8.235,18.321 8.646,28.408c-0.206,0 -1.647,-0.618 -3.911,-0.206l0,29.231c7.822,1.03 13.998,-6.175 13.998,-14.615c0,-3.912 -1.235,-7.411 -3.294,-9.881c0,-0.824 0,-1.441 0,-2.265c0,-13.792 -4.117,-26.349 -10.704,-35.818c0.412,-2.059 -0.206,-4.323 -1.647,-5.97c-19.556,-20.38 -45.7,-21.821 -66.903,-4.117c-2.676,2.058 -3.087,5.764 -1.441,8.646c-7.204,9.675 -11.733,22.644 -11.733,37.053c0,0.618 0,1.441 0,2.265c-2.059,2.676 -3.294,6.175 -3.294,9.881c0,9.057 6.793,15.645 13.998,14.615Z" style="fill:#6376fa;fill-rule:nonzero;"/><path d="M79.683,55.532l-0.618,0c-2.058,0 -3.911,1.647 -3.911,3.911l0,31.496c0,2.058 1.647,3.911 3.911,3.911l0.618,0c2.058,0 3.911,-1.647 3.911,-3.911l0,-31.496c0,-2.059 -1.853,-3.911 -3.911,-3.911Z" style="fill:#6376fa;fill-rule:nonzero;"/><path d="M24.925,55.532c-2.058,0 -3.911,1.647 -3.911,3.911l0,31.496c0,2.058 1.647,3.911 3.911,3.911l0.618,0c2.059,0 3.911,-1.647 3.911,-3.911l0,-31.496c0,-2.059 -1.647,-3.911 -3.911,-3.911l-0.618,0Z" style="fill:#6376fa;fill-rule:nonzero;"/></g></svg>