<svg xmlns="http://www.w3.org/2000/svg" xmlns:xlink="http://www.w3.org/1999/xlink" version="1.1" x="0px" y="0px" viewBox="0 0 50 62.5" style="enable-background:new 0 0 50 50;" xml:space="preserve"><g><path d="M7.8,44.4V30.2c-0.2,0-0.4,0-0.7,0c-0.4,0-0.8,0-1.3,0.2C6.1,24.7,8,19.1,11.2,15c0.7,0,1.4-0.3,2-0.7   c7.7-6.4,16.5-5.9,23.5,1.4c0.6,0.7,1.5,1,2.4,1c0.3,0,0.6-0.1,0.9-0.1c2.6,4,4,8.9,4.2,13.8c-0.1,0-0.8-0.3-1.9-0.1v14.2   c3.8,0.5,6.8-3,6.8-7.1c0-1.9-0.6-3.6-1.6-4.8v0c0,0,0,0,0,0c0-0.4,0-0.7,0-1.1c0-6.7-2-12.8-5.2-17.4c0.2-1-0.1-2.1-0.8-2.9   C32,1.3,19.3,0.6,9,9.2c-1.3,1-1.5,2.8-0.7,4.2c-3.5,4.7-5.7,11-5.7,18c0,0.3,0,0.7,0,1.1c-1,1.3-1.6,3-1.6,4.8   C1,41.7,4.3,44.9,7.8,44.4z"/><path d="M38.3,27.7H38c-1,0-1.9,0.8-1.9,1.9v15.3c0,1,0.8,1.9,1.9,1.9h0.3c1,0,1.9-0.8,1.9-1.9V29.6C40.2,28.6,39.3,27.7,38.3,27.7   z"/><path d="M11.7,27.7c-1,0-1.9,0.8-1.9,1.9v15.3c0,1,0.8,1.9,1.9,1.9H12c1,0,1.9-0.8,1.9-1.9V29.6c0-1-0.8-1.9-1.9-1.9H11.7z"/></g><text x="0" y="65" fill="#000000" font-size="5px" font-weight="bold" font-family="'Helvetica Neue', Helvetica, Arial-Unicode, Arial, Sans-serif">Created by Vectors Market</text><text x="0" y="70" fill="#000000" font-size="5px" font-weight="bold" font-family="'Helvetica Neue', Helvetica, Arial-Unicode, Arial, Sans-serif">from the Noun Project</text></svg>