<?xml version="1.0" encoding="UTF-8" standalone="no"?><!DOCTYPE svg PUBLIC "-//W3C//DTD SVG 1.1//EN" "http://www.w3.org/Graphics/SVG/1.1/DTD/svg11.dtd"><svg width="100%" height="100%" viewBox="0 0 141 100" version="1.1" xmlns="http://www.w3.org/2000/svg" xmlns:xlink="http://www.w3.org/1999/xlink" xml:space="preserve" xmlns:serif="http://www.serif.com/" style="fill-rule:evenodd;clip-rule:evenodd;stroke-linejoin:round;stroke-miterlimit:1.41421;"><rect id="Artboard2" x="0" y="0" width="140.439" height="100" style="fill:none;"/><g><path d="M117.782,5.15l-95.129,0c-2.255,0 -4.079,1.824 -4.079,4.079l0,57.083c0,2.249 1.824,4.078 4.079,4.078l95.128,0c2.249,0 4.078,-1.829 4.078,-4.078l0,-55.727l0,-1.356c0.002,-2.255 -1.818,-4.079 -4.077,-4.079Zm-1.347,59.795l-92.422,0l0,-54.36l92.422,0l0,54.36Z" style="fill:#6376fa;fill-rule:nonzero;"/><path d="M122.006,73.124c-0.819,-0.757 -2.416,-1.379 -3.532,-1.379l-96.505,0c-1.12,0 -2.707,0.622 -3.527,1.379l-16.177,14.925l0,2.722c0,0 0,4.079 4.078,4.079l127.752,0c4.079,0 4.079,-4.079 4.079,-4.079l0,-2.722l-16.168,-14.925Zm-69.644,8.639l35.713,0l2.754,4.436l-41.222,0l2.755,-4.436Zm27.368,7.653c0,0.746 -0.61,1.355 -1.356,1.355l-16.309,0c-0.752,0 -1.357,-0.609 -1.357,-1.355l0,-1.367l19.021,0l0,1.367l0.001,0Z" style="fill:#6376fa;fill-rule:nonzero;"/></g></svg>