<?xml version="1.0" encoding="UTF-8" standalone="no"?><!DOCTYPE svg PUBLIC "-//W3C//DTD SVG 1.1//EN" "http://www.w3.org/Graphics/SVG/1.1/DTD/svg11.dtd"><svg width="100%" height="100%" viewBox="0 0 96 90" version="1.1" xmlns="http://www.w3.org/2000/svg" xmlns:xlink="http://www.w3.org/1999/xlink" xml:space="preserve" xmlns:serif="http://www.serif.com/" style="fill-rule:evenodd;clip-rule:evenodd;stroke-linejoin:round;stroke-miterlimit:1.41421;"><g><path d="M23.92,11.96l-17.94,0c-3.305,0 -5.98,2.681 -5.98,5.98l0,65.78c0,3.305 2.675,5.98 5.98,5.98l17.94,0c3.305,0 5.98,-2.675 5.98,-5.98l0,-65.78c0,-3.299 -2.675,-5.98 -5.98,-5.98Zm-14.95,59.8c-1.653,0 -2.99,-1.337 -2.99,-2.99c0,-1.653 1.337,-2.99 2.99,-2.99c1.653,0 2.99,1.337 2.99,2.99c0,1.653 -1.337,2.99 -2.99,2.99Zm14.95,-35.88l-17.94,0l0,-5.98l17.94,0l0,5.98Zm0,-11.96l-17.94,0l0,-5.98l17.94,0l0,5.98Z" style="fill:#6376fa;fill-rule:nonzero;"/><path d="M62.79,77.74l0,-5.98l-17.94,0l0,5.98c-3.305,0 -5.98,2.675 -5.98,5.98l29.9,0c0,-3.305 -2.675,-5.98 -5.98,-5.98Z" style="fill:#6376fa;fill-rule:nonzero;"/><path d="M89.7,0l-71.76,0c-3.305,0 -5.98,2.681 -5.98,5.98l77.74,0l0,47.84l-53.82,0l0,11.96l53.82,0c3.305,0 5.98,-2.675 5.98,-5.98l0,-53.82c0,-3.299 -2.675,-5.98 -5.98,-5.98Zm-35.88,62.79c-1.653,0 -2.99,-1.337 -2.99,-2.99c0,-1.653 1.337,-2.99 2.99,-2.99c1.653,0 2.99,1.337 2.99,2.99c0,1.653 -1.337,2.99 -2.99,2.99Z" style="fill:#6376fa;fill-rule:nonzero;"/></g></svg>