<?xml version="1.0" encoding="UTF-8" standalone="no"?><!DOCTYPE svg PUBLIC "-//W3C//DTD SVG 1.1//EN" "http://www.w3.org/Graphics/SVG/1.1/DTD/svg11.dtd"><svg width="100%" height="100%" viewBox="0 0 53 90" version="1.1" xmlns="http://www.w3.org/2000/svg" xmlns:xlink="http://www.w3.org/1999/xlink" xml:space="preserve" xmlns:serif="http://www.serif.com/" style="fill-rule:evenodd;clip-rule:evenodd;stroke-linejoin:round;stroke-miterlimit:1.41421;"><path d="M46.852,0l-41.064,0c-3.201,0 -5.788,2.587 -5.788,5.788l0,78.124c0,3.201 2.587,5.788 5.788,5.788l41.064,0c3.201,0 5.788,-2.587 5.788,-5.788l0,-78.113c0,-3.2 -2.587,-5.799 -5.788,-5.799Zm-26.9,5.152l12.747,0l0,0.636l-12.747,0l0,-0.636Zm9.636,76.908c0,1.796 -1.472,3.268 -3.268,3.268c-1.796,0 -3.268,-1.472 -3.268,-3.268c0,-1.795 1.472,-3.267 3.268,-3.267c1.796,-0.011 3.268,1.461 3.268,3.267Zm18.569,-5.732l-43.674,0l0,-66.313l43.674,0l0,66.313Z" style="fill:#6376fa;fill-rule:nonzero;"/></svg>