<?xml version="1.0" encoding="UTF-8" standalone="no"?><!DOCTYPE svg PUBLIC "-//W3C//DTD SVG 1.1//EN" "http://www.w3.org/Graphics/SVG/1.1/DTD/svg11.dtd"><svg width="100%" height="100%" viewBox="0 0 100 100" version="1.1" xmlns="http://www.w3.org/2000/svg" xmlns:xlink="http://www.w3.org/1999/xlink" xml:space="preserve" xmlns:serif="http://www.serif.com/" style="fill-rule:evenodd;clip-rule:evenodd;stroke-linejoin:round;stroke-miterlimit:1.41421;"><rect id="Artboard2" x="0" y="0" width="100" height="100" style="fill:none;"/><g><g><path d="M75.544,10.313l0,25.813l-51.196,0l0,-25.813l51.196,0m5.163,-5.163l-61.521,0l0,36.138l61.413,0l0,-36.138l0.108,0Z" style="fill:#6376fa;fill-rule:nonzero;"/><g><path d="M80.707,94.85l-61.521,0l61.521,0l0,-20.973l0,20.973Z" style="fill:#6376fa;fill-rule:nonzero;"/><path d="M80.707,73.877" style="fill:#6376fa;fill-rule:nonzero;"/><path d="M4.128,44.837l0,29.04l15.165,0l0,20.973l61.414,0l0,-20.973l15.165,0l0,-29.04l-91.744,0Zm71.416,29.04l0,15.81l-51.196,0l0,-15.81l0,-10.003l51.089,0l0,10.003l0.107,0Z" style="fill:#6376fa;fill-rule:nonzero;"/><g><path d="M31.017,70.65l0,4.303l37.859,0l0,-1.076l0,-3.227l-37.859,0Z" style="fill:#6376fa;fill-rule:nonzero;"/><rect x="31.017" y="77.856" width="19.252" height="4.302" style="fill:#6376fa;"/></g></g></g></g></svg>