<svg xmlns="http://www.w3.org/2000/svg" xmlns:xlink="http://www.w3.org/1999/xlink" version="1.1" x="0px" y="0px" viewBox="0 0 100 125" enable-background="new 0 0 100 100" xml:space="preserve"><g><g><path d="M73.8,13.1v24H26.2v-24H73.8 M78.6,8.3H21.4v33.6h57.1V8.3L78.6,8.3z"/></g><g><polygon points="78.6,91.7 21.4,91.7 21.4,91.7 78.6,91.7 78.6,72.2 78.6,72.2   "/><line x1="78.6" y1="72.2" x2="78.6" y2="72.2"/><path d="M7.4,45.2v27h14.1v19.5h57.1V72.2h14.1v-27H7.4z M73.8,72.2v14.7H26.2V72.2v-9.3h47.5V72.2z"/><g><polygon points="32.4,69.2 32.4,72.2 32.4,73.2 67.6,73.2 67.6,72.2 67.6,69.2    "/><rect x="32.4" y="75.9" width="17.9" height="4"/></g></g></g><text x="0" y="115" fill="#000000" font-size="5px" font-weight="bold" font-family="'Helvetica Neue', Helvetica, Arial-Unicode, Arial, Sans-serif">Created by Björn Andersson</text><text x="0" y="120" fill="#000000" font-size="5px" font-weight="bold" font-family="'Helvetica Neue', Helvetica, Arial-Unicode, Arial, Sans-serif">from the Noun Project</text></svg>