<?xml version="1.0" encoding="UTF-8" standalone="no"?><!DOCTYPE svg PUBLIC "-//W3C//DTD SVG 1.1//EN" "http://www.w3.org/Graphics/SVG/1.1/DTD/svg11.dtd"><svg width="100%" height="100%" viewBox="0 0 125 100" version="1.1" xmlns="http://www.w3.org/2000/svg" xmlns:xlink="http://www.w3.org/1999/xlink" xml:space="preserve" xmlns:serif="http://www.serif.com/" style="fill-rule:evenodd;clip-rule:evenodd;stroke-linejoin:round;stroke-miterlimit:1.41421;"><rect id="Artboard2" x="0" y="0" width="124.947" height="100" style="fill:none;"/><path d="M7.102,5.15l110.743,0l0,76.886l-44.648,0l0,6.744l15.107,0c0.675,0 1.214,0.54 1.214,1.214l0,3.642c0,0.674 -0.539,1.214 -1.214,1.214l-51.796,0c-0.675,0 -1.214,-0.54 -1.214,-1.214l0,-3.642c0,-0.674 0.539,-1.214 1.214,-1.214l15.242,0l0,-6.744l-44.648,0l0,-76.886Zm6.745,3.642l97.253,0c1.349,0 2.428,1.214 2.428,2.563l0,60.834c0,1.349 -1.079,2.428 -2.428,2.428l-97.253,0c-1.349,0 -2.428,-1.079 -2.428,-2.428l0,-60.834c0,-1.349 1.079,-2.563 2.428,-2.563Z" style="fill:#6376fa;"/></svg>