<?xml version="1.0" encoding="UTF-8" standalone="no"?><!DOCTYPE svg PUBLIC "-//W3C//DTD SVG 1.1//EN" "http://www.w3.org/Graphics/SVG/1.1/DTD/svg11.dtd"><svg width="100%" height="100%" viewBox="0 0 100 100" version="1.1" xmlns="http://www.w3.org/2000/svg" xmlns:xlink="http://www.w3.org/1999/xlink" xml:space="preserve" xmlns:serif="http://www.serif.com/" style="fill-rule:evenodd;clip-rule:evenodd;stroke-linejoin:round;stroke-miterlimit:1.41421;"><rect id="Artboard2" x="0" y="0" width="100" height="100" style="fill:none;"/><g><path d="M88.38,20.491l0,-13.547c0,-0.99 -0.803,-1.794 -1.794,-1.794l-71.557,0c-0.99,0 -1.794,0.804 -1.794,1.794l0,13.547l75.145,0Zm-15.707,-7.882l4.83,0c0.991,0 1.794,0.803 1.794,1.794c0,0.99 -0.803,1.794 -1.794,1.794l-4.83,0c-0.991,0 -1.794,-0.804 -1.794,-1.794c0,-0.991 0.802,-1.794 1.794,-1.794Zm-11.188,0l4.83,0c0.991,0 1.794,0.803 1.794,1.794c0,0.99 -0.803,1.794 -1.794,1.794l-4.83,0c-0.992,0 -1.794,-0.804 -1.794,-1.794c0,-0.991 0.802,-1.794 1.794,-1.794Zm-38.903,0l9.153,0c0.99,0 1.794,0.803 1.794,1.794c0,0.99 -0.804,1.794 -1.794,1.794l-9.153,0c-0.991,0 -1.794,-0.804 -1.794,-1.794c0,-0.991 0.802,-1.794 1.794,-1.794Z" style="fill:#6376fa;fill-rule:nonzero;"/><path d="M50.808,41.666c-9.502,0 -17.234,7.731 -17.234,17.234c0,9.503 7.732,17.234 17.234,17.234c9.503,0 17.233,-7.731 17.233,-17.234c0,-9.503 -7.73,-17.234 -17.233,-17.234Z" style="fill:#6376fa;fill-rule:nonzero;"/><path d="M13.235,24.079l0,68.977c0,0.991 0.804,1.794 1.794,1.794l71.557,0c0.991,0 1.794,-0.803 1.794,-1.794l0,-68.977l-75.145,0Zm37.573,59.23c-13.481,0 -24.41,-10.928 -24.41,-24.41c0,-13.481 10.928,-24.41 24.41,-24.41c13.481,0 24.41,10.928 24.41,24.41c0,13.481 -10.929,24.41 -24.41,24.41Z" style="fill:#6376fa;fill-rule:nonzero;"/></g></svg>