<svg viewBox="0 0 100 100" xmlns="http://www.w3.org/2000/svg" fill-rule="evenodd" clip-rule="evenodd" stroke-linejoin="round" stroke-miterlimit="1.414"><path fill="none" d="M0 0h100v100H0z"/><g fill="#6376fa" fill-rule="nonzero"><path d="M26.08 17.11H8.14a5.98 5.98 0 0 0-5.98 5.98v65.78a5.977 5.977 0 0 0 5.98 5.98h17.94a5.977 5.977 0 0 0 5.98-5.98V23.09a5.98 5.98 0 0 0-5.98-5.98zm-14.95 59.8a2.988 2.988 0 0 1-2.99-2.99 2.988 2.988 0 0 1 2.99-2.99 2.988 2.988 0 0 1 2.99 2.99 2.988 2.988 0 0 1-2.99 2.99zm14.95-35.88H8.14v-5.98h17.94v5.98zm0-11.96H8.14v-5.98h17.94v5.98zm38.87 53.82v-5.98H47.01v5.98a5.977 5.977 0 0 0-5.98 5.98h29.9a5.977 5.977 0 0 0-5.98-5.98z"/><path d="M91.86 5.15H20.1a5.98 5.98 0 0 0-5.98 5.98h77.74v47.84H38.04v11.96h53.82a5.977 5.977 0 0 0 5.98-5.98V11.13a5.98 5.98 0 0 0-5.98-5.98zM55.98 67.94a2.988 2.988 0 0 1-2.99-2.99 2.988 2.988 0 0 1 2.99-2.99 2.988 2.988 0 0 1 2.99 2.99 2.988 2.988 0 0 1-2.99 2.99z"/></g></svg>