<svg id="Ñëîé_1" data-name="Ñëîé 1" xmlns="http://www.w3.org/2000/svg" xmlns:xlink="http://www.w3.org/1999/xlink" viewBox="0 0 713.62 400"><defs><style>.cls-8{fill:#fff}.cls-10,.cls-13,.cls-60{fill:#242993}.cls-10,.cls-64{opacity:.5}.cls-14,.cls-26,.cls-62{fill:#4553c7}.cls-15,.cls-64{fill:#42ffff}.cls-17{fill:url(#Áåçûìÿííûé_ãðàäèåíò_28-2)}.cls-24{fill:#3947ba}.cls-25{fill:#cae7ff}.cls-26{opacity:.51}.cls-27{fill:#bcd5ff}.cls-31{fill:#3f38fc}.cls-60{opacity:.6}.cls-62{opacity:.8}.cls-63{opacity:.32}.cls-98{fill:#dd821f}.cls-99{fill:#ffd85a}.cls-100{fill:#f9bf30}.cls-101{fill:#f2b42a}</style><filter id="luminosity-noclip" x="333.73" y="-8392" width="33.93" height="32766" filterUnits="userSpaceOnUse" color-interpolation-filters="sRGB"><feFlood flood-color="#fff" result="bg"/><feBlend in="SourceGraphic" in2="bg"/></filter><linearGradient id="Áåçûìÿííûé_ãðàäèåíò_57" data-name="Áåçûìÿííûé ãðàäèåíò 57" x1="345.91" y1="191.8" x2="356.39" y2="176.52" gradientTransform="matrix(-1 0 0 1 699.25 0)" gradientUnits="userSpaceOnUse"><stop offset="0"/><stop offset=".05" stop-color="#2f2f2f"/><stop offset=".1" stop-color="#5a5a5a"/><stop offset=".15" stop-color="#828282"/><stop offset=".22" stop-color="#a4a4a4"/><stop offset=".28" stop-color="silver"/><stop offset=".36" stop-color="#d7d7d7"/><stop offset=".44" stop-color="#e9e9e9"/><stop offset=".54" stop-color="#f6f6f6"/><stop offset=".68" stop-color="#fdfdfd"/><stop offset="1" stop-color="#fff"/></linearGradient><filter id="luminosity-noclip-2" x="172.03" y="-8392" width="33.93" height="32766" filterUnits="userSpaceOnUse" color-interpolation-filters="sRGB"><feFlood flood-color="#fff" result="bg"/><feBlend in="SourceGraphic" in2="bg"/></filter><linearGradient id="Áåçûìÿííûé_ãðàäèåíò_56" data-name="Áåçûìÿííûé ãðàäèåíò 56" x1="507.61" y1="164.07" x2="518.08" y2="148.79" xlink:href="#Áåçûìÿííûé_ãðàäèåíò_57"/><linearGradient id="Áåçûìÿííûé_ãðàäèåíò_295" data-name="Áåçûìÿííûé ãðàäèåíò 295" x1="620.75" y1="-17.41" x2="-118" y2="574.98" gradientTransform="matrix(-1 0 0 1 699.63 0)" gradientUnits="userSpaceOnUse"><stop offset="0" stop-color="#4482cc"/><stop offset=".04" stop-color="#447ecc"/><stop offset=".47" stop-color="#4553c7"/><stop offset=".6" stop-color="#3b44bc"/><stop offset=".84" stop-color="#2b2dab"/><stop offset="1" stop-color="#2525a5"/></linearGradient><linearGradient id="Áåçûìÿííûé_ãðàäèåíò_18" data-name="Áåçûìÿííûé ãðàäèåíò 18" x1="-14" y1="192.9" x2="645.58" y2="192.9" gradientTransform="matrix(-1 0 0 1 699.63 0)" gradientUnits="userSpaceOnUse"><stop offset="0" stop-color="#2525a5"/><stop offset="1" stop-color="#2525a5"/></linearGradient><linearGradient id="Áåçûìÿííûé_ãðàäèåíò_19" data-name="Áåçûìÿííûé ãðàäèåíò 19" x1="669.92" y1="65.94" x2="607.87" y2="115.7" gradientTransform="matrix(-1 0 0 1 699.25 0)" gradientUnits="userSpaceOnUse"><stop offset="0" stop-color="#bcd5ff"/><stop offset=".15" stop-color="#a3beff"/><stop offset=".39" stop-color="#82a0ff"/><stop offset=".61" stop-color="#6a8aff"/><stop offset=".82" stop-color="#5c7dff"/><stop offset="1" stop-color="#5778ff"/></linearGradient><linearGradient id="Áåçûìÿííûé_ãðàäèåíò_28" data-name="Áåçûìÿííûé ãðàäèåíò 28" x1="220.18" y1="327.71" x2="163.78" y2="372.93" gradientTransform="matrix(-.87 .5 1 .58 -119.43 -218.19)" gradientUnits="userSpaceOnUse"><stop offset="0" stop-color="#c0d6ff"/><stop offset=".3" stop-color="#c5dbff"/><stop offset=".65" stop-color="#d3e9ff"/><stop offset="1" stop-color="#e9ffff"/></linearGradient><linearGradient id="Áåçûìÿííûé_ãðàäèåíò_19-2" x1="247.42" y1="281.44" x2="185.37" y2="331.19" xlink:href="#Áåçûìÿííûé_ãðàäèåíò_19"/><linearGradient id="Áåçûìÿííûé_ãðàäèåíò_28-2" x1="191.73" y1="725.57" x2="135.33" y2="770.8" xlink:href="#Áåçûìÿííûé_ãðàäèåíò_28"/><linearGradient id="Áåçûìÿííûé_ãðàäèåíò_19-3" x1="247.42" y1="265.12" x2="185.37" y2="314.87" xlink:href="#Áåçûìÿííûé_ãðàäèåíò_19"/><linearGradient id="Áåçûìÿííûé_ãðàäèåíò_28-4" x1="175.4" y1="711.43" x2="119" y2="756.66" xlink:href="#Áåçûìÿííûé_ãðàäèåíò_28"/><linearGradient id="Áåçûìÿííûé_ãðàäèåíò_19-4" x1="678.88" y1="197.46" x2="616.84" y2="247.21" xlink:href="#Áåçûìÿííûé_ãðàäèåíò_19"/><linearGradient id="Áåçûìÿííûé_ãðàäèåíò_28-5" x1="356.86" y1="437.12" x2="300.46" y2="482.34" xlink:href="#Áåçûìÿííûé_ãðàäèåíò_28"/><linearGradient id="Áåçûìÿííûé_ãðàäèåíò_28-6" x1="-1198.81" y1="303.72" x2="-1198.81" y2="178.43" gradientTransform="translate(1551.03)" xlink:href="#Áåçûìÿííûé_ãðàäèåíò_28"/><linearGradient id="Áåçûìÿííûé_ãðàäèåíò_29" data-name="Áåçûìÿííûé ãðàäèåíò 29" x1="-1268.81" y1="172.01" x2="-1191.23" y2="172.01" gradientTransform="translate(1551.41)" gradientUnits="userSpaceOnUse"><stop offset="0" stop-color="#5778ff"/><stop offset=".18" stop-color="#5c7dff"/><stop offset=".39" stop-color="#6a8aff"/><stop offset=".61" stop-color="#82a0ff"/><stop offset=".85" stop-color="#a3beff"/><stop offset="1" stop-color="#bcd5ff"/></linearGradient><linearGradient id="Áåçûìÿííûé_ãðàäèåíò_28-7" x1="-1217.31" y1="185.86" x2="-1187.26" y2="185.86" gradientTransform="translate(1551.41)" xlink:href="#Áåçûìÿííûé_ãðàäèåíò_28"/><linearGradient id="Áåçûìÿííûé_ãðàäèåíò_28-8" x1="-1268.81" y1="169.98" x2="-1187.26" y2="169.98" gradientTransform="translate(1551.41)" xlink:href="#Áåçûìÿííûé_ãðàäèåíò_28"/><linearGradient id="Áåçûìÿííûé_ãðàäèåíò_29-2" x1="-1250.93" y1="158.61" x2="-1241.34" y2="158.61" xlink:href="#Áåçûìÿííûé_ãðàäèåíò_29"/><linearGradient id="Áåçûìÿííûé_ãðàäèåíò_29-3" x1="-1248.44" y1="160.05" x2="-1238.85" y2="160.05" xlink:href="#Áåçûìÿííûé_ãðàäèåíò_29"/><linearGradient id="Áåçûìÿííûé_ãðàäèåíò_29-4" x1="-1245.95" y1="161.48" x2="-1236.35" y2="161.48" xlink:href="#Áåçûìÿííûé_ãðàäèåíò_29"/><linearGradient id="Áåçûìÿííûé_ãðàäèåíò_29-5" x1="-1243.46" y1="162.91" x2="-1233.86" y2="162.91" xlink:href="#Áåçûìÿííûé_ãðàäèåíò_29"/><linearGradient id="Áåçûìÿííûé_ãðàäèåíò_29-6" x1="-1236.18" y1="167.14" x2="-1226.58" y2="167.14" xlink:href="#Áåçûìÿííûé_ãðàäèåíò_29"/><linearGradient id="Áåçûìÿííûé_ãðàäèåíò_29-7" x1="-1233.69" y1="168.58" x2="-1224.09" y2="168.58" xlink:href="#Áåçûìÿííûé_ãðàäèåíò_29"/><linearGradient id="Áåçûìÿííûé_ãðàäèåíò_29-8" x1="-1231.19" y1="170.01" x2="-1221.6" y2="170.01" xlink:href="#Áåçûìÿííûé_ãðàäèåíò_29"/><linearGradient id="Áåçûìÿííûé_ãðàäèåíò_29-9" x1="-1228.7" y1="171.44" x2="-1219.11" y2="171.44" xlink:href="#Áåçûìÿííûé_ãðàäèåíò_29"/><linearGradient id="Áåçûìÿííûé_ãðàäèåíò_29-10" x1="-1221.42" y1="175.68" x2="-1211.83" y2="175.68" xlink:href="#Áåçûìÿííûé_ãðàäèåíò_29"/><linearGradient id="Áåçûìÿííûé_ãðàäèåíò_29-11" x1="-1218.93" y1="177.11" x2="-1209.34" y2="177.11" xlink:href="#Áåçûìÿííûé_ãðàäèåíò_29"/><linearGradient id="Áåçûìÿííûé_ãðàäèåíò_29-12" x1="-1216.44" y1="178.54" x2="-1206.85" y2="178.54" xlink:href="#Áåçûìÿííûé_ãðàäèåíò_29"/><linearGradient id="Áåçûìÿííûé_ãðàäèåíò_29-13" x1="-1213.95" y1="179.98" x2="-1204.36" y2="179.98" xlink:href="#Áåçûìÿííûé_ãðàäèåíò_29"/><linearGradient id="Áåçûìÿííûé_ãðàäèåíò_28-9" x1="-1223.28" y1="200.25" x2="-1220.83" y2="200.25" gradientTransform="translate(1551.03)" xlink:href="#Áåçûìÿííûé_ãðàäèåíò_28"/><linearGradient id="Áåçûìÿííûé_ãðàäèåíò_29-14" x1="-1223.58" y1="200.5" x2="-1221.55" y2="200.5" gradientTransform="translate(1551.03)" xlink:href="#Áåçûìÿííûé_ãðàäèåíò_29"/><linearGradient id="Áåçûìÿííûé_ãðàäèåíò_28-10" x1="-1273.52" y1="171.41" x2="-1271.06" y2="171.41" gradientTransform="translate(1551.03)" xlink:href="#Áåçûìÿííûé_ãðàäèåíò_28"/><linearGradient id="Áåçûìÿííûé_ãðàäèåíò_29-15" x1="-1273.82" y1="171.66" x2="-1271.79" y2="171.66" gradientTransform="translate(1551.03)" xlink:href="#Áåçûìÿííûé_ãðàäèåíò_29"/><linearGradient id="Áåçûìÿííûé_ãðàäèåíò_28-11" x1="-1223.28" y1="297.92" x2="-1220.83" y2="297.92" gradientTransform="translate(1551.03)" xlink:href="#Áåçûìÿííûé_ãðàäèåíò_28"/><linearGradient id="Áåçûìÿííûé_ãðàäèåíò_29-16" x1="-1223.58" y1="298.2" x2="-1221.55" y2="298.2" gradientTransform="translate(1551.03)" xlink:href="#Áåçûìÿííûé_ãðàäèåíò_29"/><linearGradient id="Áåçûìÿííûé_ãðàäèåíò_28-12" x1="-1223.28" y1="298.13" x2="-1220.82" y2="298.13" gradientTransform="translate(1551.03)" xlink:href="#Áåçûìÿííûé_ãðàäèåíò_28"/><linearGradient id="Áåçûìÿííûé_ãðàäèåíò_29-17" x1="-1223.58" y1="298.13" x2="-1221.55" y2="298.13" gradientTransform="translate(1551.03)" xlink:href="#Áåçûìÿííûé_ãðàäèåíò_29"/><linearGradient id="Áåçûìÿííûé_ãðàäèåíò_28-13" x1="-1273.52" y1="269.08" x2="-1271.06" y2="269.08" gradientTransform="translate(1551.03)" xlink:href="#Áåçûìÿííûé_ãðàäèåíò_28"/><linearGradient id="Áåçûìÿííûé_ãðàäèåíò_29-18" x1="-1273.82" y1="269.36" x2="-1271.79" y2="269.36" gradientTransform="translate(1551.03)" xlink:href="#Áåçûìÿííûé_ãðàäèåíò_29"/><linearGradient id="Áåçûìÿííûé_ãðàäèåíò_28-14" x1="-1273.52" y1="269.29" x2="-1271.06" y2="269.29" gradientTransform="translate(1551.03)" xlink:href="#Áåçûìÿííûé_ãðàäèåíò_28"/><linearGradient id="Áåçûìÿííûé_ãðàäèåíò_29-19" x1="-1273.82" y1="269.29" x2="-1271.79" y2="269.29" gradientTransform="translate(1551.03)" xlink:href="#Áåçûìÿííûé_ãðàäèåíò_29"/><filter id="luminosity-noclip-3" x="333.73" y="178.2" width="33.93" height="19.48" filterUnits="userSpaceOnUse" color-interpolation-filters="sRGB"><feFlood flood-color="#fff" result="bg"/><feBlend in="SourceGraphic" in2="bg"/></filter><mask id="mask-3" x="334.1" y="178.2" width="33.93" height="19.48" maskUnits="userSpaceOnUse"><g filter="url(#luminosity-noclip-3)"><g mask="url(#mask)" transform="translate(.37)"><path style="mix-blend-mode:multiply" fill="url(#Áåçûìÿííûé_ãðàäèåíò_57)" d="M363.77 178.2l3.89 2.14-30.05 17.35-3.88-2.14 30.04-17.35z"/></g></g></mask><linearGradient id="Áåçûìÿííûé_ãðàäèåíò_31" data-name="Áåçûìÿííûé ãðàäèåíò 31" x1="345.91" y1="191.8" x2="356.39" y2="176.52" gradientTransform="matrix(-1 0 0 1 699.63 0)" gradientUnits="userSpaceOnUse"><stop offset="0" stop-color="#e9ffff"/><stop offset=".04" stop-color="#d3ebff"/><stop offset=".11" stop-color="#b2ccff"/><stop offset=".18" stop-color="#96b2ff"/><stop offset=".27" stop-color="#7f9dff"/><stop offset=".36" stop-color="#6d8cff"/><stop offset=".48" stop-color="#6081ff"/><stop offset=".64" stop-color="#597aff"/><stop offset="1" stop-color="#5778ff"/></linearGradient><linearGradient id="Áåçûìÿííûé_ãðàäèåíò_35" data-name="Áåçûìÿííûé ãðàäèåíò 35" x1="-1386.53" y1="293.26" x2="-1362.17" y2="249.39" gradientTransform="matrix(-1 0 0 1 -1069.06 0)" gradientUnits="userSpaceOnUse"><stop offset="0" stop-color="#5778ff"/><stop offset=".04" stop-color="#5c7dff"/><stop offset=".09" stop-color="#6a8aff"/><stop offset=".14" stop-color="#82a0ff"/><stop offset=".19" stop-color="#a3beff"/><stop offset=".22" stop-color="#bcd5ff"/></linearGradient><linearGradient id="Áåçûìÿííûé_ãðàäèåíò_28-15" x1="-1356.6" y1="293.42" x2="-1372.82" y2="261.71" gradientTransform="matrix(-1 0 0 1 -1069.06 0)" xlink:href="#Áåçûìÿííûé_ãðàäèåíò_28"/><linearGradient id="Áåçûìÿííûé_ãðàäèåíò_38" data-name="Áåçûìÿííûé ãðàäèåíò 38" x1="-1325.81" y1="329.61" x2="-1364.58" y2="260.9" gradientTransform="matrix(-1 0 0 1 -1069.06 0)" gradientUnits="userSpaceOnUse"><stop offset="0" stop-color="#c0d6ff"/><stop offset=".12" stop-color="#d6ecff"/><stop offset=".21" stop-color="#e9ffff"/><stop offset=".25" stop-color="#e3f9ff"/><stop offset=".41" stop-color="#c9dfff"/><stop offset=".51" stop-color="#c0d6ff"/><stop offset=".62" stop-color="#d0e6ff"/><stop offset=".75" stop-color="#e9ffff"/><stop offset="1" stop-color="#c0d6ff"/></linearGradient><linearGradient id="Áåçûìÿííûé_ãðàäèåíò_28-16" x1="-1360.5" y1="275.99" x2="-1360.5" y2="150.69" gradientTransform="translate(1551.03)" xlink:href="#Áåçûìÿííûé_ãðàäèåíò_28"/><linearGradient id="Áåçûìÿííûé_ãðàäèåíò_29-20" x1="-1430.5" y1="144.28" x2="-1352.93" y2="144.28" xlink:href="#Áåçûìÿííûé_ãðàäèåíò_29"/><linearGradient id="Áåçûìÿííûé_ãðàäèåíò_28-17" x1="-1379" y1="158.13" x2="-1348.96" y2="158.13" gradientTransform="translate(1551.41)" xlink:href="#Áåçûìÿííûé_ãðàäèåíò_28"/><linearGradient id="Áåçûìÿííûé_ãðàäèåíò_28-18" x1="-1430.5" y1="142.25" x2="-1348.96" y2="142.25" gradientTransform="translate(1551.41)" xlink:href="#Áåçûìÿííûé_ãðàäèåíò_28"/><linearGradient id="Áåçûìÿííûé_ãðàäèåíò_29-21" x1="-1412.63" y1="130.88" x2="-1403.03" y2="130.88" xlink:href="#Áåçûìÿííûé_ãðàäèåíò_29"/><linearGradient id="Áåçûìÿííûé_ãðàäèåíò_29-22" x1="-1410.14" y1="132.32" x2="-1400.54" y2="132.32" xlink:href="#Áåçûìÿííûé_ãðàäèåíò_29"/><linearGradient id="Áåçûìÿííûé_ãðàäèåíò_29-23" x1="-1407.65" y1="133.75" x2="-1398.05" y2="133.75" xlink:href="#Áåçûìÿííûé_ãðàäèåíò_29"/><linearGradient id="Áåçûìÿííûé_ãðàäèåíò_29-24" x1="-1405.15" y1="135.18" x2="-1395.56" y2="135.18" xlink:href="#Áåçûìÿííûé_ãðàäèåíò_29"/><linearGradient id="Áåçûìÿííûé_ãðàäèåíò_29-25" x1="-1397.87" y1="139.41" x2="-1388.28" y2="139.41" xlink:href="#Áåçûìÿííûé_ãðàäèåíò_29"/><linearGradient id="Áåçûìÿííûé_ãðàäèåíò_29-26" x1="-1395.38" y1="140.85" x2="-1385.79" y2="140.85" xlink:href="#Áåçûìÿííûé_ãðàäèåíò_29"/><linearGradient id="Áåçûìÿííûé_ãðàäèåíò_29-27" x1="-1392.89" y1="142.28" x2="-1383.3" y2="142.28" xlink:href="#Áåçûìÿííûé_ãðàäèåíò_29"/><linearGradient id="Áåçûìÿííûé_ãðàäèåíò_29-28" x1="-1390.4" y1="143.71" x2="-1380.81" y2="143.71" xlink:href="#Áåçûìÿííûé_ãðàäèåíò_29"/><linearGradient id="Áåçûìÿííûé_ãðàäèåíò_29-29" x1="-1383.12" y1="147.95" x2="-1373.52" y2="147.95" xlink:href="#Áåçûìÿííûé_ãðàäèåíò_29"/><linearGradient id="Áåçûìÿííûé_ãðàäèåíò_29-30" x1="-1380.63" y1="149.38" x2="-1371.03" y2="149.38" xlink:href="#Áåçûìÿííûé_ãðàäèåíò_29"/><linearGradient id="Áåçûìÿííûé_ãðàäèåíò_29-31" x1="-1378.14" y1="150.81" x2="-1368.54" y2="150.81" xlink:href="#Áåçûìÿííûé_ãðàäèåíò_29"/><linearGradient id="Áåçûìÿííûé_ãðàäèåíò_29-32" x1="-1375.65" y1="152.25" x2="-1366.05" y2="152.25" xlink:href="#Áåçûìÿííûé_ãðàäèåíò_29"/><linearGradient id="Áåçûìÿííûé_ãðàäèåíò_28-19" x1="-1384.98" y1="172.52" x2="-1382.52" y2="172.52" gradientTransform="translate(1551.03)" xlink:href="#Áåçûìÿííûé_ãðàäèåíò_28"/><linearGradient id="Áåçûìÿííûé_ãðàäèåíò_29-33" x1="-1385.28" y1="172.77" x2="-1383.25" y2="172.77" gradientTransform="translate(1551.03)" xlink:href="#Áåçûìÿííûé_ãðàäèåíò_29"/><linearGradient id="Áåçûìÿííûé_ãðàäèåíò_28-20" x1="-1435.21" y1="143.68" x2="-1432.76" y2="143.68" gradientTransform="translate(1551.03)" xlink:href="#Áåçûìÿííûé_ãðàäèåíò_28"/><linearGradient id="Áåçûìÿííûé_ãðàäèåíò_29-34" x1="-1435.51" y1="143.93" x2="-1433.48" y2="143.93" gradientTransform="translate(1551.03)" xlink:href="#Áåçûìÿííûé_ãðàäèåíò_29"/><linearGradient id="Áåçûìÿííûé_ãðàäèåíò_28-21" x1="-1384.98" y1="270.19" x2="-1382.52" y2="270.19" gradientTransform="translate(1551.03)" xlink:href="#Áåçûìÿííûé_ãðàäèåíò_28"/><linearGradient id="Áåçûìÿííûé_ãðàäèåíò_29-35" x1="-1385.28" y1="270.47" x2="-1383.25" y2="270.47" gradientTransform="translate(1551.03)" xlink:href="#Áåçûìÿííûé_ãðàäèåíò_29"/><linearGradient id="Áåçûìÿííûé_ãðàäèåíò_28-22" x1="-1384.98" y1="270.4" x2="-1382.52" y2="270.4" gradientTransform="translate(1551.03)" xlink:href="#Áåçûìÿííûé_ãðàäèåíò_28"/><linearGradient id="Áåçûìÿííûé_ãðàäèåíò_29-36" x1="-1385.28" y1="270.4" x2="-1383.25" y2="270.4" gradientTransform="translate(1551.03)" xlink:href="#Áåçûìÿííûé_ãðàäèåíò_29"/><linearGradient id="Áåçûìÿííûé_ãðàäèåíò_28-23" x1="-1435.21" y1="241.35" x2="-1432.76" y2="241.35" gradientTransform="translate(1551.03)" xlink:href="#Áåçûìÿííûé_ãðàäèåíò_28"/><linearGradient id="Áåçûìÿííûé_ãðàäèåíò_29-37" x1="-1435.51" y1="241.63" x2="-1433.48" y2="241.63" gradientTransform="translate(1551.03)" xlink:href="#Áåçûìÿííûé_ãðàäèåíò_29"/><linearGradient id="Áåçûìÿííûé_ãðàäèåíò_28-24" x1="-1435.21" y1="241.56" x2="-1432.76" y2="241.56" gradientTransform="translate(1551.03)" xlink:href="#Áåçûìÿííûé_ãðàäèåíò_28"/><linearGradient id="Áåçûìÿííûé_ãðàäèåíò_29-38" x1="-1435.51" y1="241.56" x2="-1433.48" y2="241.56" gradientTransform="translate(1551.03)" xlink:href="#Áåçûìÿííûé_ãðàäèåíò_29"/><filter id="luminosity-noclip-4" x="172.03" y="150.47" width="33.93" height="19.48" filterUnits="userSpaceOnUse" color-interpolation-filters="sRGB"><feFlood flood-color="#fff" result="bg"/><feBlend in="SourceGraphic" in2="bg"/></filter><mask id="mask-4" x="172.41" y="150.47" width="33.93" height="19.48" maskUnits="userSpaceOnUse"><g filter="url(#luminosity-noclip-4)"><g mask="url(#mask-2)" transform="translate(.37)"><path style="mix-blend-mode:multiply" fill="url(#Áåçûìÿííûé_ãðàäèåíò_56)" d="M202.07 150.47l3.89 2.14-30.05 17.34-3.88-2.13 30.04-17.35z"/></g></g></mask><linearGradient id="Áåçûìÿííûé_ãðàäèåíò_31-2" x1="507.61" y1="164.07" x2="518.08" y2="148.79" xlink:href="#Áåçûìÿííûé_ãðàäèåíò_31"/><linearGradient id="Áåçûìÿííûé_ãðàäèåíò_35-2" x1="-1224.84" y1="265.53" x2="-1200.47" y2="221.65" xlink:href="#Áåçûìÿííûé_ãðàäèåíò_35"/><linearGradient id="Áåçûìÿííûé_ãðàäèåíò_28-25" x1="-1194.9" y1="265.69" x2="-1211.12" y2="233.98" gradientTransform="matrix(-1 0 0 1 -1069.06 0)" xlink:href="#Áåçûìÿííûé_ãðàäèåíò_28"/><linearGradient id="Áåçûìÿííûé_ãðàäèåíò_38-2" x1="-1164.11" y1="301.88" x2="-1202.89" y2="233.17" xlink:href="#Áåçûìÿííûé_ãðàäèåíò_38"/></defs><path fill="url(#Áåçûìÿííûé_ãðàäèåíò_295)" d="M0 0h700v400H0z"/><path fill="#33adff" opacity=".2" d="M699.63 313.67L166.67 0h532.96v313.67z"/><g opacity=".3"><path class="cls-8" d="M100 275.12a.6.6 0 0 0 .28-.08l108.07-62.4c2-1.15 3.09-2.71 3.09-4.39s-1.1-3.25-3.09-4.4L138 163.21c-1.64-.94-2.54-2.16-2.54-3.44s.9-2.5 2.54-3.44l119.17-68.8a14.36 14.36 0 0 1 13 0l40 23.07c1.63 1 2.53 2.17 2.53 3.44s-.9 2.5-2.53 3.44l-59.42 34.31c-2 1.15-3.09 2.71-3.09 4.4s1.1 3.24 3.09 4.39l88.84 51.29a15.63 15.63 0 0 0 14.13 0l59-34.05a.57.57 0 0 0 .2-.76.54.54 0 0 0-.75-.2l-59 34.06a14.43 14.43 0 0 1-13 0l-88.84-51.29c-1.63-.95-2.53-2.17-2.53-3.44s.9-2.5 2.53-3.44l59.42-34.31c2-1.15 3.09-2.71 3.09-4.4s-1.1-3.24-3.09-4.39l-40-23.08a15.63 15.63 0 0 0-14.13 0l-119.22 68.8c-2 1.15-3.08 2.71-3.08 4.4s1.09 3.25 3.08 4.4l70.39 40.64c1.63.94 2.53 2.16 2.53 3.44s-.9 2.49-2.53 3.43l-108.08 62.4a.56.56 0 0 0-.2.76.55.55 0 0 0 .49.28zm-24.87-76.01a.55.55 0 0 0 .48-.28.56.56 0 0 0-.2-.76l-54.29-31.34c-2.26-1.3-3.5-3-3.5-4.78s1.24-3.47 3.5-4.77l100.61-58.09c4.87-2.81 12.78-2.81 17.64 0l22.5 13a.55.55 0 0 0 .75-.21.55.55 0 0 0-.2-.75l-22.49-13c-5.17-3-13.58-3-18.75 0L20.56 156.22c-2.61 1.51-4 3.54-4 5.73s1.43 4.23 4 5.74L74.85 199a.6.6 0 0 0 .28.11zm11.21 6.47a.56.56 0 0 0 .27-1l-3.77-2.18a.56.56 0 0 0-.76.21.55.55 0 0 0 .2.75l3.78 2.18a.57.57 0 0 0 .28.04zm10.35 5.98a.56.56 0 0 0 .28-1l-3.26-1.88a.56.56 0 0 0-.76.2.56.56 0 0 0 .21.76l3.26 1.88a.53.53 0 0 0 .27.04z" transform="translate(.37)"/><path class="cls-8" d="M125.74 228.33a.55.55 0 0 0 .48-.28.56.56 0 0 0-.2-.76l-22.16-12.79a.56.56 0 1 0-.56 1l22.16 12.79a.6.6 0 0 0 .28.04zm249.81 167.58a16.27 16.27 0 0 0 8-1.9l143.72-83c2.23-1.29 3.46-3 3.46-4.91s-1.22-3.63-3.45-4.91l-49-28.31a17.62 17.62 0 0 0-15.91 0l-90.68 52.35a16.37 16.37 0 0 1-14.81 0l-122.39-70.6c-1.88-1.08-2.91-2.49-2.91-4s1-2.87 2.91-3.95l36.14-20.87a16.37 16.37 0 0 1 14.81 0l70.82 40.89a17.64 17.64 0 0 0 15.92 0l98.95-57.13a16.37 16.37 0 0 1 14.81 0l105.63 61a.55.55 0 0 0 .76-.2.57.57 0 0 0-.2-.76l-105.64-61c-4.38-2.54-11.52-2.54-15.91 0l-99 57.13a16.35 16.35 0 0 1-14.8 0L286 224.89c-4.38-2.53-11.52-2.53-15.91 0l-36.15 20.87c-2.23 1.29-3.46 3-3.46 4.91s1.23 3.63 3.46 4.92l122.33 70.62c4.39 2.54 11.53 2.54 15.91 0l90.68-52.35a16.37 16.37 0 0 1 14.81 0l49 28.3c1.88 1.09 2.91 2.49 2.91 4s-1 2.87-2.91 3.95L383 393.06a16.42 16.42 0 0 1-14.8 0l-186-107.38a.55.55 0 1 0-.55 1L367.59 394a16.24 16.24 0 0 0 7.96 1.91z" transform="translate(.37)"/><path class="cls-8" d="M238 354.81a.54.54 0 0 0 .27-.07l30.91-17.85a.56.56 0 0 0-.56-1l-30.9 17.85a.55.55 0 0 0-.21.75.57.57 0 0 0 .49.32zm84.53-196.29a.57.57 0 0 0 .48-.27.56.56 0 0 0-.21-.76L282.1 134a.55.55 0 0 0-.76.2.57.57 0 0 0 .2.76l40.71 23.5a.55.55 0 0 0 .28.06zM18.09 227.83a.58.58 0 0 0 .28-.07l53.39-30.83a.56.56 0 0 0 .21-.76.56.56 0 0 0-.76-.2l-53.4 30.83a.55.55 0 0 0 .28 1z" transform="translate(.37)"/><path class="cls-8" d="M321.73 168.71a.56.56 0 0 1-.17-.39v-10.59a.55.55 0 0 1 .55-.55h18.33a.55.55 0 0 1 .55.55v10.59a.55.55 0 0 1-.55.55h-18.32a.55.55 0 0 1-.39-.16zm18.17-10.42h-17.23v9.47h17.23zm-237.48-13.15v-10.59a.55.55 0 0 1 .58-.55h18.34a.55.55 0 0 1 .55.55v10.59a.55.55 0 0 1-.55.55H103a.55.55 0 0 1-.58-.55zm18.33-10h-17.22v9.47h17.22zM361.36 369c-2.72-1.57-4.22-3.7-4.22-6s1.5-4.41 4.23-6c5.4-3.12 14.2-3.13 19.61 0 2.72 1.57 4.22 3.69 4.22 6s-1.5 4.41-4.22 6a21.73 21.73 0 0 1-19.62 0zm.56-11c-2.37 1.36-3.67 3.15-3.67 5s1.3 3.65 3.67 5c5.1 2.95 13.4 2.94 18.5 0 2.37-1.37 3.67-3.15 3.67-5s-1.3-3.66-3.67-5a20.46 20.46 0 0 0-18.5 0zm33.7-8.77c-2.73-1.57-4.23-3.69-4.23-6s1.5-4.41 4.23-6c5.41-3.12 14.2-3.12 19.61 0 2.72 1.57 4.22 3.7 4.22 6s-1.5 4.41-4.22 6a21.71 21.71 0 0 1-19.61 0zm.55-11c-2.37 1.37-3.67 3.15-3.67 5s1.3 3.66 3.67 5c5.1 3 13.4 3 18.51 0 2.36-1.36 3.67-3.15 3.67-5s-1.31-3.65-3.67-5a20.48 20.48 0 0 0-18.51 0zm33.7-8.77c-2.72-1.58-4.22-3.7-4.22-6s1.5-4.41 4.22-6c5.41-3.13 14.21-3.13 19.61 0 2.73 1.57 4.23 3.69 4.23 6s-1.5 4.4-4.23 6a21.71 21.71 0 0 1-19.61 0zm.56-11c-2.37 1.37-3.68 3.15-3.68 5s1.31 3.65 3.68 5c5.1 2.94 13.4 2.94 18.5 0 2.37-1.37 3.67-3.15 3.67-5s-1.3-3.66-3.67-5a20.46 20.46 0 0 0-18.5 0zm33.69-8.78c-2.72-1.57-4.22-3.7-4.22-6s1.5-4.41 4.22-6c5.41-3.12 14.21-3.12 19.62 0 2.72 1.57 4.22 3.7 4.22 6s-1.5 4.41-4.22 6a21.73 21.73 0 0 1-19.62 0zm.56-11c-2.37 1.36-3.67 3.15-3.67 5s1.3 3.66 3.67 5c5.1 2.95 13.4 2.95 18.5 0 2.37-1.36 3.67-3.15 3.67-5s-1.3-3.66-3.67-5a20.46 20.46 0 0 0-18.5 0z" transform="translate(.37)"/><path class="cls-8" d="M341.59 378.92a.6.6 0 0 0 .28-.08L360.44 368a.55.55 0 0 0 .19-.76.54.54 0 0 0-.75-.2l-18.57 10.86a.55.55 0 0 0 .28 1zm-122.45-14.08v-10.58a.56.56 0 0 1 .55-.56H238a.56.56 0 0 1 .4.17.55.55 0 0 1 .16.39v10.58a.55.55 0 0 1-.56.55h-18.31a.55.55 0 0 1-.55-.55zm18.33-10h-17.23v9.48h17.23z" transform="translate(.37)"/></g><path opacity=".31" fill="url(#Áåçûìÿííûé_ãðàäèåíò_18)" d="M713.63 385.81L54.05 0h10.06l649.52 380.5v5.31z"/><path class="cls-10" d="M64.88 116.78l37-21.35c.8-.46.7-1.27-.23-1.81l-10.88-6.27-39.88 23 10.86 6.28a3.5 3.5 0 0 0 3.13.15z" transform="translate(.37)"/><path d="M12.32 87.72v-7.36h12L51 65a2.85 2.85 0 0 1 2.55.11L80 80.4h11.94v7.38a.78.78 0 0 1-.43.62l-38.19 22a2.84 2.84 0 0 1-2.55-.1L12.94 88.51a1.07 1.07 0 0 1-.62-.79z" transform="translate(.37)" fill="url(#Áåçûìÿííûé_ãðàäèåíò_19)"/><path d="M53.31 103.09L91.5 81c.65-.38.57-1-.18-1.47L53.5 57.73a2.88 2.88 0 0 0-2.5-.11L12.76 79.67c-.65.38-.57 1 .18 1.47L50.76 103a2.85 2.85 0 0 0 2.55.09z" transform="translate(.37)" fill="url(#Áåçûìÿííûé_ãðàäèåíò_28)"/><path class="cls-13" d="M53.18 100.5L87 81c.58-.33.5-.92-.16-1.3l-33.5-19.4a2.48 2.48 0 0 0-2.26-.09L17.23 79.75c-.58.33-.51.92.16 1.3l33.53 19.36a2.48 2.48 0 0 0 2.26.09z" transform="translate(.37)"/><path class="cls-14" d="M53.09 98.87l31.1-18c.53-.31.47-.84-.15-1.2l-30.8-17.74a2.33 2.33 0 0 0-2.07-.09l-31.1 18c-.54.31-.47.84.15 1.2L51 98.78a2.3 2.3 0 0 0 2.09.09z" transform="translate(.37)"/><path class="cls-15" d="M53.22 79.19l3.64-2.1-1.99-1.15-3.64 2.1 1.99 1.15zm-6.76-.3l3.64 2.1 1.98-1.15-3.63-2.1-1.99 1.15zm7.59.77l1.98 1.15 1.99-1.15-1.99-1.14-1.98 1.14zm-6.87 3.97l1.99 1.14 5.72-3.3-1.98-1.15-5.73 3.31z"/><path class="cls-10" d="M332.24 261.34l82.17 46.33-36.97 20.4-81.35-45.86 36.15-20.87zm-166.21 11.25l36.15-20.87 46.79 26.57-.04.02-36.96 20.4.03-.02-45.97-26.1z"/><path class="cls-15" d="M372.61 303.76a8.79 8.79 0 0 0 4.56-1.28l41.83-25.4a7.87 7.87 0 0 1 8.11-.06l14.66 8.62 22.41 12.94.44-.76-22.4-12.94-14.66-8.62a8.77 8.77 0 0 0-9 .06l-41.83 25.4a7.85 7.85 0 0 1-8.15 0l-95.11-56.62a9 9 0 0 0-9.12-.07l-49.9 28.62a8.15 8.15 0 0 1-8.29-.1l-15.4-9.33-.46.76 15.4 9.33a9.06 9.06 0 0 0 9.19.11l49.9-28.63a8.16 8.16 0 0 1 8.23.07l95.08 56.65a8.8 8.8 0 0 0 4.51 1.25z" transform="translate(.37)"/><path class="cls-10" d="M487.38 332.27l37-21.34c.8-.47.7-1.27-.23-1.81l-10.86-6.27-39.88 23 10.86 6.27a3.44 3.44 0 0 0 3.11.15z" transform="translate(.37)"/><path d="M434.82 303.22v-7.37h12l26.63-15.37a2.81 2.81 0 0 1 2.55.11l26.5 15.3h11.94v7.38a.75.75 0 0 1-.43.61L475.81 326a2.84 2.84 0 0 1-2.55-.1L435.44 304a1.09 1.09 0 0 1-.62-.78z" transform="translate(.37)" fill="url(#Áåçûìÿííûé_ãðàäèåíò_19-2)"/><path class="cls-17" d="M475.81 318.59l38.19-22c.65-.38.57-1-.18-1.47L476 273.23a2.85 2.85 0 0 0-2.55-.11l-38.19 22.05c-.65.38-.57 1 .18 1.47l37.82 21.84a2.88 2.88 0 0 0 2.55.11z" transform="translate(.37)"/><path class="cls-17" d="M475.81 318.59l38.19-22c.65-.38.57-1-.18-1.47L476 273.23a2.85 2.85 0 0 0-2.55-.11l-38.19 22.05c-.65.38-.57 1 .18 1.47l37.82 21.84a2.88 2.88 0 0 0 2.55.11z" transform="translate(.37)"/><path class="cls-13" d="M475.68 316l33.85-19.54c.58-.34.5-.92-.16-1.31l-33.53-19.35a2.48 2.48 0 0 0-2.26-.09l-33.85 19.54c-.58.33-.51.92.16 1.3l33.53 19.36a2.48 2.48 0 0 0 2.26.09z" transform="translate(.37)"/><path class="cls-14" d="M475.59 314.37l31.1-18c.53-.31.47-.84-.15-1.2l-30.8-17.78a2.3 2.3 0 0 0-2.07-.09l-31.1 18c-.53.31-.47.84.15 1.2l30.8 17.78a2.33 2.33 0 0 0 2.07.09z" transform="translate(.37)"/><path class="cls-15" d="M475.72 294.69l3.64-2.11-1.99-1.14-3.64 2.1 1.99 1.15zm-6.76-.3l3.64 2.1 1.98-1.15-3.63-2.1-1.99 1.15zm7.59.77l1.98 1.15 1.99-1.15-1.99-1.15-1.98 1.15zm-6.87 3.96l1.99 1.15 5.72-3.31-1.98-1.14-5.73 3.3z"/><path d="M434.82 286l16.24.1 22.39-12.93a2.85 2.85 0 0 1 2.55.11l22.69 13.1 15.75.09V296a.84.84 0 0 1-.43.54l-38.19 22a2.84 2.84 0 0 1-2.55-.1l-37.82-21.84a1.19 1.19 0 0 1-.6-.68z" transform="translate(.37)" opacity=".4" fill="#42ffff"/><path d="M434.82 286.9v-7.37h12l26.63-15.37a2.84 2.84 0 0 1 2.55.1l26.5 15.31h11.94V287a.75.75 0 0 1-.43.61l-38.19 22.05a2.81 2.81 0 0 1-2.55-.11l-37.82-21.83a1.1 1.1 0 0 1-.63-.82z" transform="translate(.37)" fill="url(#Áåçûìÿííûé_ãðàäèåíò_19-3)"/><path d="M475.81 302.26L514 280.21c.65-.37.57-1-.18-1.47L476 256.91a2.81 2.81 0 0 0-2.55-.11l-38.19 22.05c-.65.38-.57 1 .18 1.47l37.82 21.84a2.84 2.84 0 0 0 2.55.1z" transform="translate(.37)" fill="url(#Áåçûìÿííûé_ãðàäèåíò_28-4)"/><path class="cls-13" d="M475.68 299.68l33.85-19.54c.58-.34.5-.92-.16-1.31l-33.53-19.35a2.52 2.52 0 0 0-2.26-.1l-33.85 19.55c-.58.33-.51.91.16 1.3l33.53 19.36a2.54 2.54 0 0 0 2.26.09z" transform="translate(.37)"/><path class="cls-14" d="M475.59 298l31.1-18c.53-.31.47-.85-.15-1.2l-30.8-17.78a2.27 2.27 0 0 0-2.07-.09l-31.1 18c-.53.3-.47.84.15 1.19l30.8 17.88a2.3 2.3 0 0 0 2.07 0z" transform="translate(.37)"/><path class="cls-15" d="M475.72 278.36l3.64-2.1-1.99-1.14-3.64 2.09 1.99 1.15zm-6.76-.3l3.64 2.1 1.98-1.14-3.63-2.1-1.99 1.14zm7.59.78l1.98 1.15 1.99-1.15-1.99-1.15-1.98 1.15zm-6.87 3.96l1.99 1.15 5.72-3.31-1.98-1.15-5.73 3.31z"/><path class="cls-10" d="M55.92 248.29l37-21.35c.8-.46.7-1.27-.22-1.8l-10.9-6.28-39.87 23 10.86 6.27a3.5 3.5 0 0 0 3.13.16z" transform="translate(.37)"/><path d="M3.36 219.24v-7.37h12L42 196.51a2.84 2.84 0 0 1 2.55.1L71 211.91h12v7.39a.77.77 0 0 1-.43.61L44.35 242a2.84 2.84 0 0 1-2.55-.11L4 220a1.1 1.1 0 0 1-.64-.76z" transform="translate(.37)" fill="url(#Áåçûìÿííûé_ãðàäèåíò_19-4)"/><path d="M44.35 234.6l38.19-22c.65-.38.57-1-.19-1.47l-37.82-21.89a2.84 2.84 0 0 0-2.55-.1L3.8 211.19c-.66.37-.58 1 .18 1.47l37.82 21.83a2.81 2.81 0 0 0 2.55.11z" transform="translate(.37)" fill="url(#Áåçûìÿííûé_ãðàäèåíò_28-5)"/><path class="cls-13" d="M44.21 232l33.85-19.55c.58-.33.51-.91-.16-1.3l-33.52-19.34a2.54 2.54 0 0 0-2.26-.09L8.27 211.26c-.58.34-.51.92.16 1.31L42 231.92a2.49 2.49 0 0 0 2.21.08z" transform="translate(.37)"/><path class="cls-14" d="M44.13 230.38l31.1-18c.53-.3.46-.84-.15-1.19l-30.8-17.79a2.32 2.32 0 0 0-2.08-.08l-31.1 17.99c-.53.31-.46.85.15 1.2l30.8 17.78a2.29 2.29 0 0 0 2.08.09z" transform="translate(.37)"/><path class="cls-15" d="M44.26 210.7l3.63-2.1-1.98-1.15-3.64 2.1 1.99 1.15zm-6.76-.3l3.63 2.1 1.99-1.14-3.64-2.1-1.98 1.14zm7.58.78l1.99 1.14 1.98-1.14-1.98-1.15-1.99 1.15zm-6.86 3.96l1.98 1.14 5.73-3.3-1.98-1.15-5.73 3.31z"/><path class="cls-13" d="M333.52 193.36h6.27l-1.5-3.41-62.51-24.39v104.53a.66.66 0 0 0 .37.5l57 32.91a1.42 1.42 0 0 0 .36.14z" transform="translate(.37)"/><path d="M370.22 178.43l-36 20.52v104.84a2.51 2.51 0 0 0 1.16-.31l34.26-19.78a.93.93 0 0 0 .55-.71z" transform="translate(.37)" fill="url(#Áåçûìÿííûé_ãðàäèåíò_28-6)"/><path class="cls-24" d="M331.67 167.54v135.1l1.49.86a2 2 0 0 0 1.07.23c.41 0 .43-.25.77-.45l.31-.13-.33-16V262l.75-94.47z" transform="translate(.37)"/><path class="cls-25" d="M335.73 287.35v-89.24l-1.48.84v104.84h.31a2.12 2.12 0 0 0 .55-.14l.26-.13.32-.19z" transform="translate(.37)"/><path class="cls-26" d="M278.97 171.3l50.24 29V298l-50.24-29v-97.7z"/><path class="cls-26" d="M276.15 254.9l55.9-37.42v-19.29l-55.9-32.63v89.34z"/><path class="cls-27" d="M333.16 199.05l-57-32.91c-.57-.33-.5-.91.17-1.3l34.26-19.78a2.52 2.52 0 0 1 2.25-.09l57 32.91c.58.33.51.91-.16 1.29L335.41 199a2.52 2.52 0 0 1-2.25.05z" transform="translate(.37)"/><path fill="url(#Áåçûìÿííûé_ãðàäèåíò_29)" d="M312.64 148.47l-27.38 15.81-2.66-.49v2.02l51.5 29.74 26.08-17.73-47.54-29.35z"/><path fill="url(#Áåçûìÿííûé_ãðàäèåíò_28-7)" d="M364.14 176.18v2.02l-30.04 17.35v-2.03l30.04-17.34z"/><path fill="url(#Áåçûìÿííûé_ãðàäèåíò_28-8)" d="M334.1 193.52l-51.5-29.73 30.04-17.35 51.5 29.74-30.04 17.34z"/><path class="cls-31" d="M301.83 161.62l-.82-.47.06-.39 7.62-4.43 1.05.51-.19.32-7.72 4.46z"/><path fill="url(#Áåçûìÿííûé_ãðàäèåíò_29-2)" d="M308.73 156.69l.82.47.52-.3-1.34-.78-8.25 4.76.53.31 7.72-4.46z"/><path class="cls-31" d="M304.32 163.05l-.82-.47.06-.39 7.62-4.43 1.05.51-.19.33-7.72 4.45z"/><path fill="url(#Áåçûìÿííûé_ãðàäèåíò_29-3)" d="M311.22 158.12l.82.48.52-.31-1.34-.78-8.25 4.76.53.31 7.72-4.46z"/><path class="cls-31" d="M306.81 164.49l-.82-.48.07-.38 7.61-4.43 1.05.5-.19.33-7.72 4.46z"/><path fill="url(#Áåçûìÿííûé_ãðàäèåíò_29-4)" d="M313.71 159.56l.82.47.52-.31-1.34-.77-8.25 4.76.53.3 7.72-4.45z"/><path class="cls-31" d="M309.3 165.92l-.82-.48.07-.38 7.61-4.43 1.05.51-.19.32-7.72 4.46z"/><path fill="url(#Áåçûìÿííûé_ãðàäèåíò_29-5)" d="M316.2 160.99l.82.47.53-.3-1.35-.78-8.25 4.76.53.31 7.72-4.46z"/><path class="cls-31" d="M316.58 170.15l-.82-.47.07-.39 7.61-4.43 1.06.51-.2.32-7.72 4.46z"/><path fill="url(#Áåçûìÿííûé_ãðàäèåíò_29-6)" d="M323.48 165.22l.82.47.53-.3-1.35-.78-8.25 4.76.53.31 7.72-4.46z"/><path class="cls-31" d="M319.07 171.58l-.82-.47.07-.38 7.61-4.43 1.06.5-.2.33-7.72 4.45z"/><path fill="url(#Áåçûìÿííûé_ãðàäèåíò_29-7)" d="M325.97 166.66l.82.47.53-.31-1.35-.78-8.25 4.77.53.3 7.72-4.45z"/><path class="cls-31" d="M321.56 173.02l-.82-.48.07-.38 7.61-4.43 1.06.5-.2.33-7.72 4.46z"/><path fill="url(#Áåçûìÿííûé_ãðàäèåíò_29-8)" d="M328.46 168.09l.82.47.53-.3-1.35-.78-8.25 4.76.53.3 7.72-4.45z"/><path class="cls-31" d="M324.05 174.45l-.82-.47.07-.39 7.61-4.43 1.06.51-.2.33-7.72 4.45z"/><path fill="url(#Áåçûìÿííûé_ãðàäèåíò_29-9)" d="M330.95 169.52l.82.48.53-.31-1.35-.78-8.25 4.76.53.31 7.72-4.46z"/><path class="cls-31" d="M331.34 178.68l-.83-.47.07-.39 7.61-4.42 1.06.5-.2.33-7.71 4.45z"/><path fill="url(#Áåçûìÿííûé_ãðàäèåíò_29-10)" d="M338.23 173.75l.82.48.53-.31-1.35-.78-8.24 4.76.53.31 7.71-4.46z"/><path class="cls-31" d="M333.83 180.12l-.83-.48.07-.38 7.61-4.43 1.06.5-.2.33-7.71 4.46z"/><path fill="url(#Áåçûìÿííûé_ãðàäèåíò_29-11)" d="M340.72 175.19l.82.47.53-.31-1.35-.77-8.24 4.76.53.3 7.71-4.45z"/><path class="cls-31" d="M336.32 181.55l-.82-.48.06-.38 7.61-4.43 1.06.5-.2.33-7.71 4.46z"/><path fill="url(#Áåçûìÿííûé_ãðàäèåíò_29-12)" d="M343.21 176.62l.82.47.53-.3-1.35-.78-8.24 4.76.53.31 7.71-4.46z"/><path class="cls-31" d="M338.81 182.98l-.82-.47.06-.39 7.62-4.43 1.05.51-.2.33-7.71 4.45z"/><path fill="url(#Áåçûìÿííûé_ãðàäèåíò_29-13)" d="M345.7 178.05l.82.48.53-.31-1.35-.78-8.24 4.76.53.31 7.71-4.46z"/><path class="cls-26" d="M340.61 262.64a.94.94 0 0 1-.48-.83v-32.37a2.1 2.1 0 0 1 1-1.79l23.39-13.5a1 1 0 0 1 1.48.85v32.36a2.08 2.08 0 0 1-1 1.79l-23.39 13.5a.91.91 0 0 1-.48.13.94.94 0 0 1-.52-.14zm24.21-48l-23.38 13.5a1.51 1.51 0 0 0-.76 1.31v32.37a.39.39 0 0 0 .21.35.38.38 0 0 0 .41 0l23.38-13.5a1.5 1.5 0 0 0 .76-1.31V215a.41.41 0 0 0-.21-.36.36.36 0 0 0-.2-.06.39.39 0 0 0-.21.05z" transform="translate(.37)"/><path d="M330.21 200.66a2.24 2.24 0 0 0-1-1.76.71.71 0 0 0-.72-.07l-.72.42h.45a.75.75 0 0 0 0 .22 2.26 2.26 0 0 0 1 1.76l.22.09-.21.39.71-.41a.73.73 0 0 0 .27-.64z" transform="translate(.37)" fill="url(#Áåçûìÿííûé_ãðàäèåíò_28-9)"/><path d="M329.49 201.08c0 .65-.46.91-1 .59a2.24 2.24 0 0 1-1-1.76c0-.65.46-.91 1-.59a2.28 2.28 0 0 1 1 1.76z" transform="translate(.37)" fill="url(#Áåçûìÿííûé_ãðàäèåíò_29-14)"/><path class="cls-31" d="M329.05 200.83c0 .38-.26.53-.58.34a1.31 1.31 0 0 1-.59-1c0-.37.27-.52.59-.34a1.3 1.3 0 0 1 .58 1z" transform="translate(.37)"/><path d="M280 171.82a2.23 2.23 0 0 0-1-1.76.71.71 0 0 0-.72-.07l-.72.42h.44a1.38 1.38 0 0 0 0 .22 2.28 2.28 0 0 0 1 1.76l.21.09-.2.39.7-.41a.7.7 0 0 0 .29-.64z" transform="translate(.37)" fill="url(#Áåçûìÿííûé_ãðàäèåíò_28-10)"/><path d="M279.25 172.24c0 .65-.46.91-1 .59a2.23 2.23 0 0 1-1-1.76c0-.65.45-.91 1-.59a2.28 2.28 0 0 1 1 1.76z" transform="translate(.37)" fill="url(#Áåçûìÿííûé_ãðàäèåíò_29-15)"/><path class="cls-31" d="M278.82 172c0 .38-.26.53-.59.34a1.28 1.28 0 0 1-.58-1c0-.37.26-.52.58-.34a1.28 1.28 0 0 1 .59 1z" transform="translate(.37)"/><path d="M330.21 298.33a2.24 2.24 0 0 0-1-1.76.71.71 0 0 0-.72-.07l-.72.42a.74.74 0 0 1 .72.07 2.28 2.28 0 0 1 1 1.76.74.74 0 0 1-.28.65l.71-.41a.73.73 0 0 0 .29-.66z" transform="translate(.37)" fill="url(#Áåçûìÿííûé_ãðàäèåíò_28-11)"/><path d="M329.19 298.92a1 1 0 0 1-.2-.15c-.1.16-.29.2-.52.07a1.3 1.3 0 0 1-.59-1c0-.26.13-.41.32-.41a2.46 2.46 0 0 1 0-.26.78.78 0 0 1 0-.22h-.45a.74.74 0 0 0-.3.66 2.24 2.24 0 0 0 1 1.76.7.7 0 0 0 .74.06l.2-.39z" transform="translate(.37)" fill="url(#Áåçûìÿííûé_ãðàäèåíò_29-16)"/><path d="M329.49 298.75a2.28 2.28 0 0 0-1-1.76.74.74 0 0 0-.72-.07h.45a.78.78 0 0 0 0 .22 2.46 2.46 0 0 0 0 .26.49.49 0 0 1 .27.07 1.3 1.3 0 0 1 .58 1 .51.51 0 0 1-.06.27 1 1 0 0 0 .2.15l.22.09-.2.39a.74.74 0 0 0 .26-.62z" transform="translate(.37)" fill="url(#Áåçûìÿííûé_ãðàäèåíò_28-12)"/><path d="M329.49 298.75a2.28 2.28 0 0 0-1-1.76.74.74 0 0 0-.72-.07h.45a.78.78 0 0 0 0 .22 2.46 2.46 0 0 0 0 .26.49.49 0 0 1 .27.07 1.3 1.3 0 0 1 .58 1 .51.51 0 0 1-.06.27 1 1 0 0 0 .2.15l.22.09-.2.39a.74.74 0 0 0 .26-.62z" transform="translate(.37)" fill="url(#Áåçûìÿííûé_ãðàäèåíò_29-17)"/><path class="cls-31" d="M327.88 297.83a1.3 1.3 0 0 0 .59 1c.23.13.42.09.52-.07a2.29 2.29 0 0 1-.79-1.35c-.2.01-.32.16-.32.42z" transform="translate(.37)"/><path class="cls-31" d="M329 298.77a.51.51 0 0 0 .06-.27 1.3 1.3 0 0 0-.58-1 .49.49 0 0 0-.27-.07 2.29 2.29 0 0 0 .79 1.34z" transform="translate(.37)"/><path d="M279 267.73a.71.71 0 0 0-.72-.07l-.72.42a.72.72 0 0 1 .71.07 2.28 2.28 0 0 1 1 1.76.73.73 0 0 1-.28.65l.7-.41a.69.69 0 0 0 .3-.66 2.25 2.25 0 0 0-.99-1.76z" transform="translate(.37)" fill="url(#Áåçûìÿííûé_ãðàäèåíò_28-13)"/><path d="M279 270.08a1.37 1.37 0 0 1-.21-.15c-.1.17-.29.2-.52.07a1.28 1.28 0 0 1-.58-1c0-.26.13-.41.31-.41a2.46 2.46 0 0 1 0-.26 1.5 1.5 0 0 1 0-.22h-.44a.72.72 0 0 0-.3.66 2.23 2.23 0 0 0 1 1.76.7.7 0 0 0 .74.06l.2-.39z" transform="translate(.37)" fill="url(#Áåçûìÿííûé_ãðàäèåíò_29-18)"/><path d="M279.25 269.91a2.28 2.28 0 0 0-1-1.76.72.72 0 0 0-.71-.07h.44a1.5 1.5 0 0 0 0 .22 2.46 2.46 0 0 0 0 .26.49.49 0 0 1 .27.07 1.29 1.29 0 0 1 .59 1 .5.5 0 0 1-.07.26 1.37 1.37 0 0 0 .21.15l.21.09-.2.39a.73.73 0 0 0 .26-.61z" transform="translate(.37)" fill="url(#Áåçûìÿííûé_ãðàäèåíò_28-14)"/><path d="M279.25 269.91a2.28 2.28 0 0 0-1-1.76.72.72 0 0 0-.71-.07h.44a1.5 1.5 0 0 0 0 .22 2.46 2.46 0 0 0 0 .26.49.49 0 0 1 .27.07 1.29 1.29 0 0 1 .59 1 .5.5 0 0 1-.07.26 1.37 1.37 0 0 0 .21.15l.21.09-.2.39a.73.73 0 0 0 .26-.61z" transform="translate(.37)" fill="url(#Áåçûìÿííûé_ãðàäèåíò_29-19)"/><path class="cls-31" d="M277.65 269a1.28 1.28 0 0 0 .58 1c.23.13.42.1.52-.07a2.4 2.4 0 0 1-.79-1.35c-.18 0-.31.15-.31.42z" transform="translate(.37)"/><path class="cls-31" d="M278.75 269.93a.5.5 0 0 0 .07-.26 1.29 1.29 0 0 0-.59-1 .49.49 0 0 0-.27-.07 2.4 2.4 0 0 0 .79 1.33z" transform="translate(.37)"/><g mask="url(#mask-3)"><path fill="url(#Áåçûìÿííûé_ãðàäèåíò_31)" opacity=".78" d="M364.14 178.2l3.89 2.14-30.04 17.35-3.89-2.14 30.04-17.35z"/></g><path d="M276.4 251.82l3.68-2.11a.17.17 0 0 1 .18 0l46.06 26.59a.66.66 0 0 1 .27.52v8.69a.25.25 0 0 1-.07.21l-3.72 2.14v-4.21l-42.5-24.53a.66.66 0 0 1-.27-.52v-3z" transform="translate(.37)" fill="url(#Áåçûìÿííûé_ãðàäèåíò_35)"/><path d="M276.57 261.26l46.06 26.6c.15.08.27 0 .27-.21V279a.64.64 0 0 0-.27-.52l-46.06-26.6c-.15-.08-.27 0-.27.21v8.69a.64.64 0 0 0 .27.48z" transform="translate(.37)" fill="url(#Áåçûìÿííûé_ãðàäèåíò_28-15)"/><path class="cls-60" d="M282.92 259.5l35.87 21.09a24.79 24.79 0 0 0-3.13 3.25L279.54 263a24.82 24.82 0 0 1 3.38-3.5z" transform="translate(.37)"/><path class="cls-13" d="M277.88 258.65l43.43 25.08c.11.06.19 0 .19-.14v-2.19a.43.43 0 0 0-.19-.35L277.88 256c-.1-.06-.18 0-.18.14v2.19a.45.45 0 0 0 .18.32z" transform="translate(.37)"/><path class="cls-14" d="M277.88 256l.89.51v1.18a.45.45 0 0 0 .18.36l42.55 24.56v1c0 .13-.08.2-.19.14l-43.43-25.08a.45.45 0 0 1-.18-.35v-2.19c0-.13.08-.22.18-.13z" transform="translate(.37)"/><path d="M231.05 312.23l27.3-15.76a26.11 26.11 0 0 0 13-21.06c.44-7.4 6-14.68 10.38-17.19l36.13 20.86c-4.28 2.47-9 9.37-9.53 16.65a26.43 26.43 0 0 1-13 21.09l-28.18 16.27z" transform="translate(.37)" fill="url(#Áåçûìÿííûé_ãðàäèåíò_38)" opacity=".96"/><path class="cls-62" d="M281.78 258.22l36.13 20.86c-.29.17-.58.35-.86.54l-36.12-20.86z" transform="translate(.37)"/><g class="cls-63"><path class="cls-14" d="M296.46 282.45l7.12 4.12.05-.82-7.1-4.11-.07.81zm-3.58-2.08l2.51 1.46.07-.8-2.51-1.46-.07.8zm-2.75-1.59l1.69.98.08-.8-1.69-.97-.08.79zm9.4 7.4l3.91 2.28.06-.83-3.9-2.27-.07.82zm-5.79-3.38l4.71 2.74.06-.81-4.7-2.74-.07.81zm-2.78-1.62l1.71 1 .07-.81-1.7-.98-.08.79zm-2.61-1.52l1.69.98.08-.79-1.69-.98-.08.79zm12.12 9.03l2.84 1.67.06-.84-2.84-1.66-.06.83zm-2.06-1.21l.96.57.07-.83-.97-.56-.06.82zm-2.83-1.65l1.74 1.02.07-.82-1.74-1.02-.07.82zm-2.82.31l10.42 6.13.06-.84-10.41-6.11-.07.82zm-3.59-2.12l2.51 1.48.08-.81-2.51-1.48-.08.81zm11 8.49l2.87 1.7.06-.85-2.86-1.69-.07.84zm-6.63-3.93l5.53 3.28.06-.84-5.51-3.26-.08.82zm-2.81-1.66l1.73 1.02.08-.82-1.73-1.02-.08.82zm6.31 5.75l5.86 3.49.06-.86-5.85-3.48-.07.85zm-5.26-3.13l4.16 2.47.07-.84-4.15-2.46-.08.83zm-3.85-2.3l2.77 1.65.08-.82-2.77-1.65-.08.82zm12.83 9.69l2.01 1.2.06-.87-2-1.19-.07.86zm-3.73-2.24l2.62 1.57.06-.86-2.61-1.56-.07.85zm-5.26-3.15l4.16 2.49.07-.84-4.15-2.48-.08.83zm4.74 4.89l6.12 3.68.06-.87-6.11-3.67-.07.86zm-6.71-4.04l5.6 3.37.08-.85-5.6-3.36-.08.84zm-2.81-1.69l1.72 1.04.09-.84-1.72-1.03-.09.83zm-2.68-1.61l1.72 1.03.09-.83-1.71-1.03-.1.83zm14.48 10.79l3.7 2.23.06-.88-3.69-2.22-.07.87zm-16.27-25.51l-4.63-2.69.1-.76 4.62 2.67-.09.78zm-1.22 1.18l-3.64-2.12.1-.76 3.64 2.11-.1.77zm-1.23 1.19l-2.64-1.55.1-.77 2.64 1.54-.1.78zm.99 2.51l-3.87-2.28.11-.78 3.85 2.27-.09.79zm-1.44 1.09l-2.67-1.58.11-.78 2.65 1.57-.09.79zm.49 2.25l-3.39-2.02.1-.8 3.39 2.02-.1.8zm-1.79.91l-1.84-1.11.1-.8 1.85 1.1-.11.81zm1.52 2.9l-3.61-2.18.11-.8 3.6 2.16-.1.82zm-.42 1.75l-3.43-2.07.11-.82 3.42 2.07-.1.82zm16.7 10.11l1.55.94.07-.87-1.55-.93-.07.86zm-4.56-2.76l3.45 2.09.07-.86-3.44-2.08-.08.85z"/></g><path class="cls-64" d="M287.99 183.6l-6.24-3.6v-1.37l6.24 3.6v1.37zm3.2 1.85l-2.25-1.3v-1.37l2.25 1.3v1.37zm2.47 1.43l-1.52-.88v-1.37l1.52.88v1.37zm-8.51-1.79l-3.4-1.96v-1.37l3.4 1.96v1.37zm5.11 2.96l-4.16-2.41v-1.37l4.16 2.41v1.37zm2.48 1.43l-1.52-.88v-1.37l1.52.88v1.37zm2.36 1.36l-1.52-.88v-1.37l1.52.88v1.37z"/><path class="cls-15" d="M284.21 187.68l-2.46-1.42v-1.37l2.46 1.42v1.37zm1.79 1.04l-.84-.49v-1.37l.84.49v1.37z"/><path class="cls-64" d="M288.48 190.15l-1.53-.88v-1.37l1.53.88v1.37zm2.34 4.48l-9.07-5.24v-1.37l9.07 5.24v1.37zm3.2 1.85l-2.24-1.3v-1.37l2.24 1.3v1.37zm-9.81-2.54l-2.46-1.42v-1.37l2.46 1.42v1.37zm5.77 3.33l-4.82-2.78v-1.37l4.82 2.78v1.37zm2.48 1.43l-1.53-.88v-1.37l1.53.88v1.37zm-5.68-.15l-5.03-2.9v-1.37l5.03 2.9v1.37z"/><path class="cls-15" d="M291.37 201.21l-3.64-2.11v-1.37l3.64 2.11v1.37z"/><path class="cls-64" d="M294.78 203.18l-2.46-1.42v-1.37l2.46 1.42v1.37zm-11.33-3.42l-1.7-.98v-1.37l1.7.98v1.37zm3.2 1.85l-2.25-1.3v-1.37l2.25 1.3v1.37zm4.57 2.64l-3.62-2.09v-1.37l3.62 2.09v1.37zm-4.27.66l-5.2-3v-1.37l5.2 3v1.37zm5.83 3.37l-4.87-2.82v-1.37l4.87 2.82v1.37z"/><path class="cls-15" d="M295.26 209.71l-1.52-.88v-1.37l1.52.88v1.37z"/><path class="cls-64" d="M297.64 211.09l-1.52-.89v-1.37l1.52.89v1.37zm-12.77-4.25l-3.12-1.8v-1.37l3.12 1.8v1.37z"/><path class="cls-15" d="M297.91 189.33l4.33 2.5v-1.37l-4.33-2.5v1.37z"/><path class="cls-64" d="M298.84 193l3.4 1.96v-1.37l-3.4-1.96V193zm.94 3.67l2.46 1.42v-1.37l-2.46-1.42v1.37zm-1.12 2.48l3.58 2.07v-1.37l-3.58-2.07v1.37zm1.12 3.78l2.46 1.42v-1.37l-2.46-1.42v1.37zm-.66 2.75l3.12 1.8v-1.37l-3.12-1.8v1.37zm1.42 3.95l1.7.98v-1.37l-1.7-.98v1.37zm-1.6 2.21l3.3 1.9v-1.37l-3.3-1.9v1.37zm.18 3.23l3.12 1.8v-1.37l-3.12-1.8v1.37zm-11.97-6.91l-1.33-.77v-1.37l1.33.76v1.38zm3.93 2.27l-2.98-1.72v-1.37l2.98 1.72v1.37zm21.1-12.91l-6.24-3.61v-1.37l6.24 3.61v1.37zm3.2 1.84l-2.25-1.29v-1.37l2.25 1.29v1.37z"/><path class="cls-15" d="M317.86 200.79l-1.53-.88v-1.37l1.53.89v1.36z"/><path class="cls-64" d="M309.34 199.01l-3.4-1.97v-1.37l3.4 1.97v1.37zm5.12 2.95l-4.17-2.4v-1.37l4.17 2.4v1.37z"/><path class="cls-15" d="M316.94 203.39l-1.53-.88v-1.37l1.53.88v1.37z"/><path class="cls-64" d="M319.3 204.75l-1.53-.88v-1.37l1.53.88v1.37zm-10.9-3.16l-2.46-1.42v-1.37l2.46 1.42v1.37zm1.79 1.04l-.84-.49v-1.37l.84.49v1.37zm2.48 1.43l-1.53-.88v-1.37l1.53.88v1.37zm2.35 4.48l-9.08-5.24v-1.37l9.08 5.24v1.37zm3.19 1.85l-2.24-1.3v-1.37l2.24 1.3v1.37zm-9.81-2.54l-2.46-1.42v-1.37l2.46 1.42v1.37zm5.77 3.34l-4.82-2.79v-1.37l4.82 2.78v1.38zm2.48 1.43l-1.53-.88v-1.37l1.53.88v1.37z"/><path class="cls-15" d="M310.97 212.47l-5.03-2.91v-1.37l5.03 2.91v1.37z"/><path class="cls-64" d="M315.56 215.12l-3.64-2.1v-1.37l3.64 2.1v1.37zm3.42 1.97l-2.46-1.42v-1.37l2.46 1.42v1.37zm-11.34-3.42l-1.7-.98v-1.37l1.7.98v1.37zm3.2 1.85l-2.25-1.3v-1.37l2.25 1.3v1.37z"/><path class="cls-15" d="M315.41 218.16l-3.62-2.09v-1.37l3.62 2.09v1.37z"/><path class="cls-64" d="M311.14 218.83l-5.2-3.01v-1.37l5.2 3.01v1.37zm5.84 3.36l-4.88-2.81v-1.37l4.88 2.81v1.37zm2.47 1.44l-1.52-.89v-1.37l1.52.88v1.38zm2.38 1.37l-1.52-.88v-1.37l1.52.88V225zm-12.77-4.25l-3.12-1.8v-1.37l3.12 1.8v1.37z"/><path class="cls-15" d="M322.1 203.25l4.33 2.49v-1.37l-4.33-2.49v1.37z"/><path class="cls-64" d="M323.03 206.91l3.4 1.96v-1.37l-3.4-1.96v1.37zm.94 3.67l2.46 1.42v-1.37l-2.46-1.42v1.37zm-1.12 2.49l3.58 2.06v-1.37l-3.58-2.06v1.37zm1.12 3.77l2.46 1.42v-1.37l-2.46-1.42v1.37zm-.66 2.75l3.12 1.8v-1.37l-3.12-1.8v1.37zm1.42 3.95l1.7.98v-1.37l-1.7-.98v1.37zm-1.6 2.21l3.3 1.9v-1.37l-3.3-1.9v1.37zm.18 3.23l3.12 1.8v-1.37l-3.12-1.8v1.37z"/><path class="cls-15" d="M311.34 222.07l-1.33-.77v-1.37l1.33.77v1.37z"/><path class="cls-64" d="M315.28 224.34l-2.99-1.72v-1.37l2.99 1.72v1.37zm-27.29-12.55l-6.24-3.6v-1.38l6.24 3.61v1.37zm3.2 1.84l-2.25-1.29v-1.37l2.25 1.29v1.37zm2.47 1.44l-1.52-.88v-1.38l1.52.89v1.37zm-8.51-1.79l-3.4-1.97v-1.37l3.4 1.97v1.37zm5.11 2.95l-4.16-2.4v-1.37l4.16 2.4v1.37zm2.48 1.43l-1.52-.88v-1.37l1.52.88v1.37zm2.36 1.37l-1.52-.88v-1.37l1.52.88v1.37zm-10.89-3.16l-2.46-1.43v-1.37l2.46 1.43v1.37zm1.79 1.03l-.84-.49v-1.37l.84.49v1.37zm2.48 1.43l-1.53-.88v-1.37l1.53.88v1.37zm2.34 4.48l-9.07-5.24v-1.37l9.07 5.24v1.37zm3.2 1.85l-2.24-1.29V222l2.24 1.29v1.37zm-9.81-2.54l-2.46-1.42v-1.37l2.46 1.42v1.37zm5.77 3.34l-4.82-2.79v-1.37l4.82 2.79v1.37zm2.48 1.43l-1.53-.88v-1.37l1.53.88v1.37zm-5.68-.15l-5.03-2.91v-1.37l5.03 2.91v1.37zm4.59 2.65l-3.64-2.1v-1.37l3.64 2.1v1.37zm3.41 1.97l-2.46-1.42v-1.37l2.46 1.42v1.37zm-11.33-3.42l-1.7-.98v-1.37l1.7.98v1.37zm3.2 1.85l-2.25-1.29v-1.38l2.25 1.3v1.37zm4.57 2.64l-3.62-2.09v-1.37l3.62 2.09v1.37zm-4.27.67l-5.2-3.01v-1.37l5.2 3.01v1.37zm5.83 3.37l-4.87-2.82v-1.37l4.87 2.81v1.38zm2.48 1.43l-1.52-.89v-1.36l1.52.88v1.37zm2.38 1.37l-1.52-.88v-1.37l1.52.88v1.37zm-12.77-4.25l-3.12-1.8v-1.37l3.12 1.8v1.37zm13.04-17.5l4.33 2.49v-1.36l-4.33-2.5v1.37zm.93 3.66l3.4 1.97v-1.37l-3.4-1.97v1.37zm.94 3.67l2.46 1.43v-1.37l-2.46-1.42v1.36zm-1.12 2.49l3.58 2.06v-1.37l-3.58-2.06v1.37zm1.12 3.77l2.46 1.42v-1.37l-2.46-1.42v1.37zm-.66 2.75l3.12 1.8v-1.37l-3.12-1.8v1.37zm1.42 3.95l1.7.98v-1.37l-1.7-.98v1.37zm-1.6 2.21l3.3 1.9v-1.37l-3.3-1.9v1.37zm.18 3.23l3.12 1.8v-1.37l-3.12-1.8v1.37zm-11.97-6.91l-1.33-.77v-1.37l1.33.77v1.37zm3.93 2.27l-2.98-1.72v-1.37l2.98 1.72v1.37zm2.48 10.53l-5.04-2.91v-1.37l5.04 2.91v1.37zm3.45 1.99l-1.99-1.14v-1.37l1.99 1.14v1.37zm15.17-25.43l-6.24-3.6v-1.37l6.24 3.6v1.37zm3.2 1.85l-2.25-1.3v-1.37l2.25 1.3v1.37zm2.48 1.43l-1.53-.88v-1.37l1.53.88v1.37zm-8.52-1.79l-3.4-1.96v-1.37l3.4 1.96v1.37zm5.12 2.96l-4.17-2.41v-1.37l4.17 2.41v1.37zm2.48 1.43l-1.53-.88v-1.37l1.53.88v1.37zm2.36 1.36l-1.53-.88v-1.37l1.53.88v1.37zm-10.9-3.16l-2.46-1.42v-1.37l2.46 1.42v1.37zm1.79 1.03l-.84-.48v-1.37l.84.48v1.37zm2.48 1.44l-1.53-.89v-1.37l1.53.89v1.37zm2.35 4.48l-9.08-5.24v-1.37l9.08 5.24v1.37zm3.19 1.85l-2.24-1.3v-1.37l2.24 1.3v1.37zm-9.81-2.54l-2.46-1.42v-1.37l2.46 1.42v1.37zm5.77 3.33l-4.82-2.78v-1.37l4.82 2.78v1.37zm2.48 1.43l-1.53-.88v-1.37l1.53.88v1.37zm-5.68-.15l-5.03-2.9v-1.37l5.03 2.9v1.37zm4.59 2.65l-3.64-2.1v-1.37l3.64 2.1v1.37zm3.42 1.97l-2.46-1.42v-1.37l2.46 1.42v1.37zm-11.34-3.41l-1.7-.98v-1.37l1.7.98v1.37zm3.2 1.85l-2.25-1.3v-1.37l2.25 1.3v1.37zm4.57 2.63l-3.62-2.09v-1.37l3.62 2.09v1.37zm-4.27.67l-5.2-3v-1.37l5.2 3v1.37zm5.84 3.37l-4.88-2.82v-1.37l4.88 2.82v1.37zm2.47 1.43l-1.52-.88v-1.37l1.52.88v1.37zm2.38 1.37l-1.52-.88v-1.37l1.52.88v1.37zm-12.77-4.24l-3.12-1.81v-1.37l3.12 1.81v1.37zm13.04-17.51l4.33 2.5v-1.37l-4.33-2.5v1.37zm.93 3.67l3.4 1.96v-1.37l-3.4-1.96v1.37zm.94 3.67l2.46 1.42v-1.37l-2.46-1.42v1.37zm-1.12 2.48l3.58 2.07v-1.37l-3.58-2.07v1.37zm1.12 3.78l2.46 1.42v-1.37l-2.46-1.42v1.37zm-.66 2.75l3.12 1.8v-1.37l-3.12-1.8v1.37zm1.42 3.94l1.7.99v-1.37l-1.7-.99v1.37zm-1.6 2.21l3.3 1.91v-1.37l-3.3-1.91v1.37zm.18 3.24l3.12 1.79v-1.36l-3.12-1.81v1.38zm-11.97-6.92l-1.33-.76v-1.37l1.33.76v1.37zm3.94 2.28l-2.99-1.73v-1.37l2.99 1.73v1.37zm2.47 10.52l-5.04-2.91v-1.37l5.04 2.91v1.37zm3.45 2l-1.99-1.15v-1.37l1.99 1.15v1.37z"/><path class="cls-13" d="M171.83 165.63h6.27l-1.51-3.41-62.51-24.39v104.5a.66.66 0 0 0 .38.5l57 32.91a1.29 1.29 0 0 0 .36.14z" transform="translate(.37)"/><path d="M208.53 150.69l-36 20.53v104.84a2.5 2.5 0 0 0 1.15-.31L208 255.9a1 1 0 0 0 .54-.71z" transform="translate(.37)" fill="url(#Áåçûìÿííûé_ãðàäèåíò_28-16)"/><path class="cls-24" d="M170 139.81v135.1l1.5.86a2 2 0 0 0 1.06.22c.42 0 .44-.24.78-.44l.31-.13-.34-16v-25.14l.75-94.47z" transform="translate(.37)"/><path class="cls-25" d="M174 259.62v-89.24l-1.47.84v104.84h.3a2 2 0 0 0 .55-.14l.26-.13.32-.19z" transform="translate(.37)"/><path class="cls-26" d="M117.27 143.57l50.24 29v97.7l-50.24-29v-97.7z"/><path class="cls-26" d="M114.45 227.17l55.9-37.42v-19.29l-55.9-32.63v89.34z"/><path class="cls-27" d="M171.47 171.32l-57-32.91c-.58-.33-.51-.91.16-1.3l34.26-19.78a2.52 2.52 0 0 1 2.25-.09l57 32.91c.57.33.5.91-.16 1.29l-34.27 19.79a2.5 2.5 0 0 1-2.24.09z" transform="translate(.37)"/><path fill="url(#Áåçûìÿííûé_ãðàäèåíò_29-20)" d="M150.95 120.74l-27.39 15.81-2.65-.49v2.02l51.5 29.74 26.07-17.73-47.53-29.35z"/><path fill="url(#Áåçûìÿííûé_ãðàäèåíò_28-17)" d="M202.45 148.45v2.02l-30.04 17.35v-2.03l30.04-17.34z"/><path fill="url(#Áåçûìÿííûé_ãðàäèåíò_28-18)" d="M172.41 165.79l-51.5-29.73 30.04-17.35 51.5 29.74-30.04 17.34z"/><path class="cls-31" d="M140.13 133.89l-.82-.48.07-.38 7.61-4.43 1.06.5-.2.33-7.72 4.46z"/><path fill="url(#Áåçûìÿííûé_ãðàäèåíò_29-21)" d="M147.03 128.96l.82.47.53-.3-1.35-.78-8.25 4.76.53.3 7.72-4.45z"/><path class="cls-31" d="M142.62 135.32l-.82-.47.07-.39 7.61-4.43 1.06.51-.2.33-7.72 4.45z"/><path fill="url(#Áåçûìÿííûé_ãðàäèåíò_29-22)" d="M149.52 130.39l.82.48.53-.31-1.35-.78-8.25 4.76.53.31 7.72-4.46z"/><path class="cls-31" d="M145.11 136.75l-.82-.47.07-.38 7.61-4.43 1.06.5-.2.33-7.72 4.45z"/><path fill="url(#Áåçûìÿííûé_ãðàäèåíò_29-23)" d="M152.01 131.83l.82.47.53-.31-1.35-.77-8.25 4.76.53.3 7.72-4.45z"/><path class="cls-31" d="M147.6 138.19l-.82-.48.07-.38 7.61-4.43 1.06.51-.2.32-7.72 4.46z"/><path fill="url(#Áåçûìÿííûé_ãðàäèåíò_29-24)" d="M154.5 133.26l.82.47.53-.3-1.35-.78-8.25 4.76.53.31 7.72-4.46z"/><path class="cls-31" d="M154.88 142.42l-.82-.47.07-.39 7.61-4.43 1.06.51-.2.32-7.72 4.46z"/><path fill="url(#Áåçûìÿííûé_ãðàäèåíò_29-25)" d="M161.78 137.49l.82.47.53-.3-1.35-.78-8.24 4.76.53.31 7.71-4.46z"/><path class="cls-31" d="M157.38 143.85l-.82-.47.06-.38 7.61-4.43 1.06.5-.2.33-7.71 4.45z"/><path fill="url(#Áåçûìÿííûé_ãðàäèåíò_29-26)" d="M164.27 138.93l.82.47.53-.31-1.35-.78-8.24 4.76.53.31 7.71-4.45z"/><path class="cls-31" d="M159.87 145.29l-.83-.48.07-.38 7.61-4.43 1.06.5-.2.33-7.71 4.46z"/><path fill="url(#Áåçûìÿííûé_ãðàäèåíò_29-27)" d="M166.76 140.36l.82.47.53-.3-1.35-.78-8.24 4.76.53.3 7.71-4.45z"/><path class="cls-31" d="M162.36 146.72l-.82-.47.06-.39 7.62-4.43 1.05.51-.2.32-7.71 4.46z"/><path fill="url(#Áåçûìÿííûé_ãðàäèåíò_29-28)" d="M169.25 141.79l.82.47.53-.3-1.35-.78-8.24 4.76.53.31 7.71-4.46z"/><path class="cls-31" d="M169.64 150.95l-.82-.47.07-.39 7.61-4.43 1.05.51-.19.33-7.72 4.45z"/><path fill="url(#Áåçûìÿííûé_ãðàäèåíò_29-29)" d="M176.54 146.02l.82.48.53-.31-1.35-.78-8.25 4.76.53.31 7.72-4.46z"/><path class="cls-31" d="M172.13 152.38l-.82-.47.07-.38 7.61-4.43 1.05.5-.19.33-7.72 4.45z"/><path fill="url(#Áåçûìÿííûé_ãðàäèåíò_29-30)" d="M179.03 147.46l.82.47.53-.31-1.35-.77-8.25 4.76.53.3 7.72-4.45z"/><path class="cls-31" d="M174.62 153.82l-.82-.48.07-.38 7.61-4.43 1.05.5-.19.33-7.72 4.46z"/><path fill="url(#Áåçûìÿííûé_ãðàäèåíò_29-31)" d="M181.52 148.89l.82.47.53-.3-1.35-.78-8.25 4.76.53.3 7.72-4.45z"/><path class="cls-31" d="M177.11 155.25l-.82-.47.07-.39 7.61-4.43 1.06.51-.2.33-7.72 4.45z"/><path fill="url(#Áåçûìÿííûé_ãðàäèåíò_29-32)" d="M184.01 150.32l.82.48.53-.31-1.35-.78-8.25 4.76.53.31 7.72-4.46z"/><path class="cls-26" d="M178.91 234.91a1 1 0 0 1-.48-.83v-32.37a2.08 2.08 0 0 1 1-1.79l23.39-13.5a1 1 0 0 1 1.44.84v32.36a2.06 2.06 0 0 1-1 1.79l-23.38 13.5a.94.94 0 0 1-.48.13 1 1 0 0 1-.49-.13zm24.21-48l-23.38 13.5a1.51 1.51 0 0 0-.76 1.31v32.37a.39.39 0 0 0 .21.35.38.38 0 0 0 .41 0l23.4-13.51a1.52 1.52 0 0 0 .75-1.31v-32.36a.4.4 0 0 0-.2-.36.4.4 0 0 0-.42 0z" transform="translate(.37)"/><path d="M168.51 172.93a2.23 2.23 0 0 0-1-1.76.71.71 0 0 0-.72-.07l-.72.42h.44a1.38 1.38 0 0 0 0 .22 2.24 2.24 0 0 0 1 1.75.67.67 0 0 0 .21.1l-.2.39.7-.41a.72.72 0 0 0 .29-.64z" transform="translate(.37)" fill="url(#Áåçûìÿííûé_ãðàäèåíò_28-19)"/><path d="M167.79 173.35c0 .65-.46.91-1 .59a2.25 2.25 0 0 1-1-1.76c0-.65.45-.91 1-.59a2.26 2.26 0 0 1 1 1.76z" transform="translate(.37)" fill="url(#Áåçûìÿííûé_ãðàäèåíò_29-33)"/><path class="cls-31" d="M167.36 173.1c0 .38-.26.53-.59.34a1.3 1.3 0 0 1-.58-1c0-.37.26-.53.58-.34a1.28 1.28 0 0 1 .59 1z" transform="translate(.37)"/><path d="M118.28 144.09a2.24 2.24 0 0 0-1-1.76.71.71 0 0 0-.72-.07l-.72.42h.44a1.38 1.38 0 0 0 0 .22 2.28 2.28 0 0 0 1 1.76l.22.09-.21.39.7-.41a.72.72 0 0 0 .29-.64z" transform="translate(.37)" fill="url(#Áåçûìÿííûé_ãðàäèåíò_28-20)"/><path d="M117.55 144.51c0 .65-.45.91-1 .59a2.26 2.26 0 0 1-1-1.76c0-.65.46-.91 1-.59a2.25 2.25 0 0 1 1 1.76z" transform="translate(.37)" fill="url(#Áåçûìÿííûé_ãðàäèåíò_29-34)"/><path class="cls-31" d="M117.12 144.26c0 .38-.26.53-.58.34a1.28 1.28 0 0 1-.59-1c0-.37.26-.53.59-.34a1.3 1.3 0 0 1 .58 1z" transform="translate(.37)"/><path d="M168.51 270.6a2.23 2.23 0 0 0-1-1.76.71.71 0 0 0-.72-.07l-.72.42a.72.72 0 0 1 .71.07 2.28 2.28 0 0 1 1 1.76.76.76 0 0 1-.28.65l.7-.41a.7.7 0 0 0 .31-.66z" transform="translate(.37)" fill="url(#Áåçûìÿííûé_ãðàäèåíò_28-21)"/><path d="M167.5 271.19l-.21-.15c-.1.16-.29.2-.52.07a1.3 1.3 0 0 1-.58-1c0-.26.13-.41.31-.41a2.46 2.46 0 0 1 0-.26 1.38 1.38 0 0 1 0-.22h-.44a.7.7 0 0 0-.3.66 2.23 2.23 0 0 0 1 1.76.72.72 0 0 0 .74.06l.2-.39a1 1 0 0 1-.2-.12z" transform="translate(.37)" fill="url(#Áåçûìÿííûé_ãðàäèåíò_29-35)"/><path d="M167.79 271a2.28 2.28 0 0 0-1-1.76.72.72 0 0 0-.71-.07h.44a1.38 1.38 0 0 0 0 .22 2.46 2.46 0 0 0 0 .26.46.46 0 0 1 .27.07 1.28 1.28 0 0 1 .59 1 .51.51 0 0 1-.07.27l.21.15a1 1 0 0 0 .21.09l-.2.39a.76.76 0 0 0 .26-.62z" transform="translate(.37)" fill="url(#Áåçûìÿííûé_ãðàäèåíò_28-22)"/><path d="M167.79 271a2.28 2.28 0 0 0-1-1.76.72.72 0 0 0-.71-.07h.44a1.38 1.38 0 0 0 0 .22 2.46 2.46 0 0 0 0 .26.46.46 0 0 1 .27.07 1.28 1.28 0 0 1 .59 1 .51.51 0 0 1-.07.27l.21.15a1 1 0 0 0 .21.09l-.2.39a.76.76 0 0 0 .26-.62z" transform="translate(.37)" fill="url(#Áåçûìÿííûé_ãðàäèåíò_29-36)"/><path class="cls-31" d="M166.19 270.1a1.3 1.3 0 0 0 .58 1c.23.13.42.09.52-.07a2.4 2.4 0 0 1-.79-1.35c-.18.01-.31.16-.31.42z" transform="translate(.37)"/><path class="cls-31" d="M167.29 271a.51.51 0 0 0 .07-.27 1.28 1.28 0 0 0-.59-1 .46.46 0 0 0-.27-.07 2.4 2.4 0 0 0 .79 1.34z" transform="translate(.37)"/><path d="M117.26 240a.71.71 0 0 0-.72-.07l-.72.42a.74.74 0 0 1 .72.07 2.26 2.26 0 0 1 1 1.76.73.73 0 0 1-.28.65l.7-.41a.71.71 0 0 0 .31-.66 2.24 2.24 0 0 0-1.01-1.76z" transform="translate(.37)" fill="url(#Áåçûìÿííûé_ãðàäèåíò_28-23)"/><path d="M117.26 242.35a1.37 1.37 0 0 1-.21-.15c-.09.16-.29.2-.51.07a1.27 1.27 0 0 1-.59-1c0-.26.13-.41.32-.41a1.22 1.22 0 0 1 0-.26 1.38 1.38 0 0 1 0-.22h-.44a.74.74 0 0 0-.3.66 2.24 2.24 0 0 0 1 1.76.68.68 0 0 0 .73.06l.21-.39z" transform="translate(.37)" fill="url(#Áåçûìÿííûé_ãðàäèåíò_29-37)"/><path d="M117.55 242.18a2.26 2.26 0 0 0-1-1.76.74.74 0 0 0-.72-.07h.44a1.38 1.38 0 0 0 0 .22 1.22 1.22 0 0 0 0 .26.49.49 0 0 1 .27.07 1.3 1.3 0 0 1 .58 1 .43.43 0 0 1-.07.27 1.37 1.37 0 0 0 .21.15l.22.09-.21.39a.73.73 0 0 0 .28-.62z" transform="translate(.37)" fill="url(#Áåçûìÿííûé_ãðàäèåíò_28-24)"/><path d="M117.55 242.18a2.26 2.26 0 0 0-1-1.76.74.74 0 0 0-.72-.07h.44a1.38 1.38 0 0 0 0 .22 1.22 1.22 0 0 0 0 .26.49.49 0 0 1 .27.07 1.3 1.3 0 0 1 .58 1 .43.43 0 0 1-.07.27 1.37 1.37 0 0 0 .21.15l.22.09-.21.39a.73.73 0 0 0 .28-.62z" transform="translate(.37)" fill="url(#Áåçûìÿííûé_ãðàäèåíò_29-38)"/><path class="cls-31" d="M116 241.26a1.27 1.27 0 0 0 .59 1c.22.13.42.09.51-.07a2.33 2.33 0 0 1-.78-1.35c-.24.01-.32.16-.32.42z" transform="translate(.37)"/><path class="cls-31" d="M117.05 242.2a.43.43 0 0 0 .07-.27 1.3 1.3 0 0 0-.58-1 .49.49 0 0 0-.27-.07 2.33 2.33 0 0 0 .78 1.34z" transform="translate(.37)"/><g mask="url(#mask-4)"><path fill="url(#Áåçûìÿííûé_ãðàäèåíò_31-2)" opacity=".78" d="M202.45 150.47l3.89 2.14-30.05 17.34-3.88-2.13 30.04-17.35z"/></g><path d="M114.71 224.09l3.67-2.11a.17.17 0 0 1 .19 0l46.06 26.59a.64.64 0 0 1 .27.52v8.69a.26.26 0 0 1-.08.21l-3.71 2.13v-4.2l-42.5-24.53a.66.66 0 0 1-.27-.52v-3z" transform="translate(.37)" fill="url(#Áåçûìÿííûé_ãðàäèåíò_35-2)"/><path d="M114.87 233.53l46.06 26.6c.15.08.27 0 .27-.21v-8.7a.66.66 0 0 0-.27-.52l-46.06-26.59c-.15-.08-.27 0-.27.21V233a.64.64 0 0 0 .27.53z" transform="translate(.37)" fill="url(#Áåçûìÿííûé_ãðàäèåíò_28-25)"/><path class="cls-60" d="M121.23 231.77l35.86 21.09a24.61 24.61 0 0 0-3.09 3.24l-36.13-20.85a24.33 24.33 0 0 1 3.36-3.48z" transform="translate(.37)"/><path class="cls-13" d="M116.19 230.92L159.62 256c.1.06.18 0 .18-.14v-2.19a.43.43 0 0 0-.18-.35l-43.43-25.08c-.11-.06-.19 0-.19.14v2.19a.43.43 0 0 0 .19.35z" transform="translate(.37)"/><path class="cls-14" d="M116.19 228.24l.88.51v1.18a.44.44 0 0 0 .19.36l42.54 24.56v1c0 .13-.08.2-.18.14l-43.43-25.08a.43.43 0 0 1-.19-.35v-2.19c0-.12.08-.19.19-.13z" transform="translate(.37)"/><path d="M69.35 284.5l27.3-15.77a26.11 26.11 0 0 0 13.06-21.05c.43-7.41 6-14.68 10.37-17.19l36.13 20.86c-4.28 2.47-9 9.37-9.52 16.65a26.47 26.47 0 0 1-13 21.09l-28.18 16.27z" transform="translate(.37)" fill="url(#Áåçûìÿííûé_ãðàäèåíò_38-2)" opacity=".96"/><path class="cls-62" d="M120.08 230.49l36.13 20.86-.86.53L119.22 231z" transform="translate(.37)"/><g class="cls-63"><path class="cls-14" d="M134.77 254.72l7.11 4.12.06-.82-7.1-4.11-.07.81zm-3.59-2.08l2.52 1.46.07-.81-2.51-1.45-.08.8zm-2.75-1.6l1.69.99.08-.8-1.69-.97-.08.78zm9.41 7.41l3.91 2.28.06-.83-3.91-2.27-.06.82zm-5.8-3.38l4.71 2.74.07-.81-4.71-2.74-.07.81zm-2.77-1.62l1.7.99.08-.8-1.7-.98-.08.79zm-2.62-1.52l1.69.98.08-.79-1.68-.98-.09.79zm12.12 9.03l2.85 1.67.05-.84-2.84-1.66-.06.83zm-2.06-1.21l.96.57.07-.83-.96-.56-.07.82zm-2.83-1.65l1.74 1.02.07-.82-1.73-1.02-.08.82zm-2.82.31l10.42 6.13.06-.84-10.4-6.11-.08.82zm-3.59-2.12l2.52 1.48.07-.81-2.51-1.48-.08.81zm11.01 8.49l2.86 1.7.07-.85-2.87-1.69-.06.84zm-6.64-3.93l5.53 3.27.07-.83-5.52-3.26-.08.82zm-2.8-1.66l1.72 1.02.08-.82-1.72-1.02-.08.82zm6.3 5.75l5.87 3.49.06-.86-5.86-3.48-.07.85zm-5.26-3.14l4.16 2.48.08-.84-4.16-2.46-.08.82zm-3.85-2.29l2.77 1.65.08-.83-2.76-1.64-.09.82zm12.84 9.69l2 1.19.06-.86-2-1.19-.06.86zm-3.73-2.24l2.61 1.57.07-.86-2.61-1.56-.07.85zm-5.27-3.15l4.16 2.49.07-.85-4.14-2.47-.09.83zm4.74 4.89l6.12 3.68.06-.87-6.1-3.67-.08.86zm-6.71-4.04l5.61 3.37.07-.85-5.59-3.36-.09.84zm-2.81-1.69l1.73 1.04.09-.84-1.73-1.04-.09.84zm-2.67-1.61l1.71 1.03.09-.83-1.71-1.03-.09.83zm14.48 10.79l3.69 2.23.06-.88-3.69-2.22-.06.87zm-16.28-25.52l-4.63-2.68.11-.76 4.61 2.67-.09.77zm-1.21 1.19l-3.65-2.12.1-.77 3.64 2.12-.09.77zm-1.24 1.19l-2.64-1.55.1-.77 2.64 1.54-.1.78zm.99 2.5l-3.86-2.27.1-.78 3.86 2.27-.1.78zm-1.44 1.1l-2.66-1.58.1-.78 2.66 1.56-.1.8zm.49 2.25l-3.39-2.02.11-.8 3.38 2.02-.1.8zm-1.78.9l-1.85-1.1.11-.8 1.84 1.1-.1.8zm1.51 2.91l-3.6-2.18.1-.8 3.61 2.16-.11.82zm-.42 1.75l-3.43-2.07.11-.82 3.42 2.07-.1.82zm16.7 10.11l1.56.94.07-.87-1.55-.93-.08.86zm-4.56-2.76l3.45 2.09.08-.86-3.45-2.08-.08.85z"/></g><path class="cls-64" d="M126.29 155.87l-6.24-3.6v-1.37l6.24 3.6v1.37zm3.2 1.85l-2.25-1.3v-1.37l2.25 1.3v1.37zm2.48 1.43l-1.53-.88v-1.37l1.53.88v1.37zm-8.52-1.79l-3.4-1.96v-1.37l3.4 1.96v1.37zm5.12 2.96l-4.17-2.41v-1.37l4.17 2.41v1.37zm2.48 1.43l-1.53-.88v-1.37l1.53.88v1.37zm2.36 1.36l-1.53-.88v-1.37l1.53.88v1.37z"/><path class="cls-15" d="M122.51 159.95l-2.46-1.42v-1.37l2.46 1.42v1.37zm1.79 1.04l-.84-.49v-1.37l.84.49v1.37z"/><path class="cls-64" d="M126.78 162.42l-1.52-.89v-1.37l1.52.89v1.37zm2.35 4.48l-9.08-5.24v-1.37l9.08 5.24v1.37zm3.2 1.85l-2.25-1.3v-1.37l2.25 1.3v1.37zm-9.82-2.54l-2.46-1.42v-1.37l2.46 1.42v1.37zm5.77 3.33l-4.82-2.78v-1.37l4.82 2.78v1.37zm2.48 1.43l-1.52-.88v-1.37l1.52.88v1.37zm-5.68-.15l-5.03-2.9v-1.37l5.03 2.9v1.37z"/><path class="cls-15" d="M129.68 173.47l-3.64-2.1V170l3.64 2.1v1.37z"/><path class="cls-64" d="M133.09 175.44l-2.46-1.41v-1.37l2.46 1.41v1.37zm-11.34-3.41l-1.7-.98v-1.37l1.7.98v1.37zm3.2 1.85l-2.25-1.3v-1.37l2.25 1.3v1.37zm4.57 2.64l-3.62-2.09v-1.37l3.62 2.09v1.37zm-4.26.66l-5.21-3v-1.37l5.21 3v1.37zm5.83 3.37l-4.88-2.82v-1.37l4.88 2.82v1.37z"/><path class="cls-15" d="M133.57 181.98l-1.53-.88v-1.37l1.53.88v1.37z"/><path class="cls-64" d="M135.95 183.35l-1.53-.88v-1.37l1.53.89v1.36zm-12.78-4.24l-3.12-1.8v-1.37l3.12 1.8v1.37z"/><path class="cls-15" d="M136.22 161.6l4.32 2.5v-1.37l-4.32-2.5v1.37z"/><path class="cls-64" d="M137.14 165.27l3.4 1.96v-1.37l-3.4-1.96v1.37zm.94 3.67l2.46 1.42v-1.37l-2.46-1.42v1.37zm-1.12 2.48l3.58 2.07v-1.37l-3.58-2.07v1.37zm1.12 3.78l2.46 1.42v-1.37l-2.46-1.42v1.37zm-.66 2.75l3.12 1.8v-1.37l-3.12-1.8v1.37zm1.42 3.95l1.7.98v-1.37l-1.7-.98v1.37zm-1.59 2.21l3.29 1.9v-1.37l-3.29-1.9v1.37zm.17 3.23l3.12 1.8v-1.37l-3.12-1.8v1.37zm-11.97-6.92l-1.33-.76v-1.37l1.33.76v1.37zm3.94 2.28l-2.99-1.73v-1.37l2.99 1.73v1.37zm21.09-12.92l-6.24-3.6v-1.37l6.24 3.6v1.37zm3.2 1.85l-2.25-1.29v-1.37l2.25 1.29v1.37z"/><path class="cls-15" d="M156.16 173.06l-1.53-.88v-1.37l1.53.88v1.37z"/><path class="cls-64" d="M147.64 171.28l-3.4-1.97v-1.37l3.4 1.97v1.37zm5.12 2.95l-4.17-2.4v-1.37l4.17 2.4v1.37z"/><path class="cls-15" d="M155.24 175.66l-1.53-.88v-1.37l1.53.88v1.37z"/><path class="cls-64" d="M157.6 177.02l-1.53-.88v-1.37l1.53.88v1.37zm-10.9-3.16l-2.46-1.42v-1.37l2.46 1.42v1.37zm1.8 1.04l-.84-.49v-1.37l.84.49v1.37zm2.47 1.43l-1.52-.88v-1.37l1.52.88v1.37zm2.35 4.48l-9.08-5.24v-1.37l9.08 5.24v1.37zm3.2 1.85l-2.25-1.3v-1.37l2.25 1.3v1.37zm-9.82-2.54l-2.46-1.42v-1.37l2.46 1.42v1.37zm5.77 3.33l-4.81-2.78v-1.37l4.81 2.78v1.37zm2.48 1.44l-1.52-.89v-1.37l1.52.89v1.37z"/><path class="cls-15" d="M149.27 184.74l-5.03-2.91v-1.37l5.03 2.91v1.37z"/><path class="cls-64" d="M153.87 187.39l-3.64-2.1v-1.37l3.64 2.1v1.37zm3.41 1.97l-2.46-1.42v-1.37l2.46 1.42v1.37zm-11.34-3.42l-1.7-.98v-1.37l1.7.98v1.37zm3.2 1.85l-2.24-1.3v-1.37l2.24 1.3v1.37z"/><path class="cls-15" d="M153.71 190.43l-3.62-2.09v-1.37l3.62 2.09v1.37z"/><path class="cls-64" d="M149.45 191.1l-5.21-3.01v-1.37l5.21 3.01v1.37zm5.83 3.36l-4.88-2.81v-1.37l4.88 2.81v1.37zm2.48 1.43l-1.53-.88v-1.37l1.53.88v1.37zm2.38 1.38l-1.53-.88v-1.37l1.53.88v1.37zm-12.78-4.25l-3.12-1.8v-1.37l3.12 1.8v1.37z"/><path class="cls-15" d="M160.41 175.52l4.32 2.49v-1.37l-4.32-2.49v1.37z"/><path class="cls-64" d="M161.33 179.18l3.4 1.96v-1.37l-3.4-1.96v1.37zm.94 3.67l2.46 1.42v-1.37l-2.46-1.42v1.37zm-1.11 2.49l3.57 2.06v-1.37l-3.57-2.06v1.37zm1.11 3.77l2.46 1.42v-1.37l-2.46-1.42v1.37zm-.66 2.75l3.12 1.8v-1.37l-3.12-1.8v1.37zm1.42 3.95l1.7.98v-1.37l-1.7-.98v1.37zm-1.59 2.21l3.29 1.9v-1.37l-3.29-1.9v1.37zm.17 3.23l3.12 1.8v-1.37l-3.12-1.8v1.37z"/><path class="cls-15" d="M149.64 194.34l-1.33-.77v-1.37l1.33.77v1.37z"/><path class="cls-64" d="M153.58 196.61l-2.99-1.72v-1.37l2.99 1.72v1.37zm-27.29-12.55l-6.24-3.6v-1.37l6.24 3.6v1.37zm3.2 1.84l-2.25-1.29v-1.37l2.25 1.29v1.37zm2.48 1.44l-1.53-.89v-1.37l1.53.89v1.37zm-8.52-1.79l-3.4-1.97v-1.37l3.4 1.97v1.37zm5.12 2.95l-4.17-2.4v-1.37l4.17 2.4v1.37zm2.48 1.43l-1.53-.88v-1.37l1.53.88v1.37zm2.36 1.37l-1.53-.89v-1.37l1.53.89v1.37zm-10.9-3.17l-2.46-1.42v-1.37l2.46 1.42v1.37zm1.79 1.04l-.84-.49v-1.37l.84.49v1.37zm2.48 1.43l-1.52-.88v-1.37l1.52.88v1.37zm2.35 4.48l-9.08-5.24v-1.37l9.08 5.24v1.37zm3.2 1.85l-2.25-1.3v-1.37l2.25 1.3v1.37zm-9.82-2.54l-2.46-1.42v-1.37l2.46 1.42v1.37zm5.77 3.33l-4.82-2.78v-1.37l4.82 2.78v1.37zm2.48 1.44l-1.52-.88v-1.37l1.52.88v1.37zm-5.68-.15l-5.03-2.91v-1.37l5.03 2.91v1.37zm4.6 2.65l-3.64-2.1v-1.37l3.64 2.1v1.37zm3.41 1.97l-2.46-1.42v-1.37l2.46 1.42v1.37zm-11.34-3.42l-1.7-.98v-1.37l1.7.98v1.37zm3.2 1.85l-2.25-1.3v-1.37l2.25 1.3v1.37zm4.57 2.64l-3.62-2.09v-1.37l3.62 2.09v1.37zm-4.26.67l-5.21-3.01v-1.37l5.21 3.01v1.37zm5.83 3.36l-4.88-2.81v-1.37l4.88 2.81v1.37zm2.48 1.43l-1.53-.88v-1.37l1.53.88v1.37zm2.38 1.38l-1.53-.88v-1.37l1.53.88v1.37zm-12.78-4.25l-3.12-1.8v-1.37l3.12 1.8v1.37zm13.05-17.5l4.32 2.49v-1.37l-4.32-2.49v1.37zm.92 3.66l3.4 1.96v-1.37l-3.4-1.96v1.37zm.94 3.67l2.46 1.42v-1.37l-2.46-1.42v1.37zm-1.12 2.49l3.58 2.06v-1.37l-3.58-2.06v1.37zm1.12 3.77l2.46 1.42v-1.37l-2.46-1.42v1.37zm-.66 2.75l3.12 1.8v-1.37l-3.12-1.8v1.37zm1.42 3.95l1.7.98v-1.37l-1.7-.98v1.37zm-1.59 2.21l3.29 1.9v-1.37l-3.29-1.9v1.37zm.17 3.23l3.12 1.8v-1.37l-3.12-1.8v1.37zm-11.97-6.91l-1.33-.77v-1.37l1.33.77v1.37zm3.94 2.27l-2.99-1.72v-1.37l2.99 1.72v1.37zm2.47 10.53l-5.04-2.91v-1.37l5.04 2.91v1.37zm3.45 1.99l-1.99-1.14v-1.37l1.99 1.14v1.37zm15.17-25.43l-6.24-3.6V193l6.24 3.6v1.37zm3.2 1.85l-2.25-1.3v-1.37l2.25 1.3v1.37zm2.48 1.43l-1.53-.88V199l1.53.88v1.37zm-8.52-1.79l-3.4-1.96v-1.37l3.4 1.96v1.37zm5.12 2.95l-4.17-2.4v-1.37l4.17 2.4v1.37zm2.48 1.44l-1.53-.88v-1.38l1.53.89v1.37zm2.36 1.36l-1.53-.88v-1.37l1.53.88v1.37zm-10.9-3.16l-2.46-1.42v-1.37l2.46 1.42v1.37zm1.8 1.03l-.84-.48v-1.37l.84.48v1.37zm2.47 1.43l-1.52-.88v-1.37l1.52.88v1.37zm2.35 4.49l-9.08-5.24v-1.37l9.08 5.24V209zm3.2 1.84l-2.25-1.29v-1.37l2.25 1.29v1.37zm-9.82-2.53l-2.46-1.42v-1.37l2.46 1.42v1.37zm5.77 3.33l-4.81-2.78v-1.37l4.81 2.78v1.37zm2.48 1.43l-1.52-.88v-1.37l1.52.88v1.37zm-5.68-.15l-5.03-2.9v-1.37l5.03 2.9v1.37zm4.6 2.65l-3.64-2.1v-1.37l3.64 2.1v1.37zm3.41 1.97l-2.46-1.42v-1.37l2.46 1.42v1.37zm-11.34-3.41l-1.7-.98v-1.37l1.7.98v1.37zm3.2 1.84l-2.24-1.29v-1.37l2.24 1.29v1.37zm4.57 2.64l-3.62-2.09v-1.37l3.62 2.09v1.37zm-4.26.67l-5.21-3v-1.37l5.21 3v1.37zm5.83 3.37l-4.88-2.82v-1.37l4.88 2.82v1.37zm2.48 1.43l-1.53-.88v-1.37l1.53.88v1.37zm2.38 1.37l-1.53-.88v-1.37l1.53.88v1.37zm-12.78-4.24l-3.12-1.8v-1.38l3.12 1.81v1.37zm13.05-17.51l4.32 2.5v-1.37l-4.32-2.5v1.37zm.92 3.67l3.4 1.96v-1.37l-3.4-1.96v1.37zm.94 3.67l2.46 1.42v-1.37l-2.46-1.42v1.37zm-1.11 2.48l3.57 2.07v-1.37l-3.57-2.07v1.37zm1.11 3.78l2.46 1.42v-1.37l-2.46-1.42v1.37zm-.66 2.74l3.12 1.81v-1.37l-3.12-1.8v1.36zm1.42 3.95l1.7.98v-1.37l-1.7-.98v1.37zm-1.59 2.21l3.29 1.9v-1.36l-3.29-1.91v1.37zm.17 3.23l3.12 1.8v-1.37l-3.12-1.8v1.37zm-11.97-6.91l-1.33-.76v-1.37l1.33.76v1.37zm3.94 2.28l-2.99-1.73v-1.37l2.99 1.73v1.37zm2.47 10.52l-5.04-2.91v-1.37l5.04 2.91v1.37zm3.45 1.99l-1.98-1.14v-1.37l1.98 1.14v1.37z"/><path class="cls-10" d="M101.17 284c-.66 1.88 3.77 5.14 9.89 7.28s11.62 2.35 12.27.48-3.77-5.14-9.89-7.28-11.61-2.39-12.27-.48z" transform="translate(.37)"/><path class="cls-98" d="M117.04 277.14l-.08-1.93-.44-1.13-.29.93.81 2.13z"/><path class="cls-99" d="M96.4 277.51l-.08-1.9s1.6 1.6 1.61 1.64-1.53.26-1.53.26z" transform="translate(.37)"/><path class="cls-99" d="M106.67 283.13c5.6-.13 10-3 9.92-7.92s-4.75-8.84-10.35-8.7-10 4.25-9.92 9.19 4.75 7.56 10.35 7.43z" transform="translate(.37)"/><path class="cls-99" d="M106.75 286.33c5.59-.14 10-4.25 9.92-9.19s-4.76-8.84-10.35-8.7-10 4.25-9.92 9.19 4.75 8.83 10.35 8.7z" transform="translate(.37)"/><path class="cls-98" d="M113.6 270.94a8.42 8.42 0 0 1 3.07 6.2c.11 4.94-4.33 9.05-9.92 9.19a10.84 10.84 0 0 1-7.17-2.4z" transform="translate(.37)"/><path class="cls-100" d="M106.74 285.93c5.34-.13 9.59-4.06 9.47-8.78s-4.54-8.44-9.88-8.31-9.59 4.06-9.48 8.78 4.54 8.44 9.89 8.31z" transform="translate(.37)"/><path class="cls-101" d="M106.7 284.24c4.29-.1 7.7-3.25 7.6-7s-3.64-6.78-7.93-6.68-7.7 3.26-7.61 7.05 3.65 6.74 7.94 6.63z" transform="translate(.37)"/><path class="cls-99" d="M98.76 277.57v-.47c.36 3.57 3.79 6.31 7.91 6.21s7.41-3 7.59-6.58a3.71 3.71 0 0 1 0 .47c.1 3.79-3.31 6.94-7.6 7s-7.81-2.84-7.9-6.63z" transform="translate(.37)"/><path class="cls-99" d="M105 278l1.6-1.47c1.53.34 4.39 1 6.68 1.53a6.53 6.53 0 0 1-3.77 3.87zm2.55 4.41a4.9 4.9 0 0 1-.77.06 7.44 7.44 0 0 1-4.87-1.6l2.6-2.41zm.8-7.51l3-2.78a5.75 5.75 0 0 1 2.15 3.15z" transform="translate(.37)"/><path class="cls-98" d="M106.78 271.34c-4.3.11-7.7 3.26-7.61 7.05a6.21 6.21 0 0 0 .46 2.19 6.27 6.27 0 0 1-.87-3c-.09-3.79 3.32-6.94 7.61-7.05a7.76 7.76 0 0 1 7.47 4.49 7.92 7.92 0 0 0-7.06-3.68zm9.81 3.87a6.39 6.39 0 0 1-.09 2c-.22-.73-.71-2.9-.71-2.9l-.77-1.72-.64-.53-1.09-.79-.09-2.49a8.48 8.48 0 0 1 3.39 6.43zM97 275v-.51a.13.13 0 0 0-.13-.13.12.12 0 0 0-.12.13v.51a.13.13 0 0 0 .13.13.12.12 0 0 0 .12-.13zm.87-2l-.05-.92a.16.16 0 0 0-.15-.15h-.09a.13.13 0 0 0-.13.15v.91a.14.14 0 0 0 .14.15h.09a.15.15 0 0 0 .19-.14zm1.23-1.7v-.88a.16.16 0 0 0-.16-.17h-.16a.16.16 0 0 0-.15.18v.89a.16.16 0 0 0 .16.16H99a.16.16 0 0 0 .1-.18zm1.9-1.37l-.06-1.07a.16.16 0 0 0-.16-.17h-.15a.18.18 0 0 0-.16.18l.06 1.07a.16.16 0 0 0 .16.17h.16a.17.17 0 0 0 .15-.18zm1.81-.93l-.06-1.24a.17.17 0 0 0-.16-.17h-.16a.15.15 0 0 0-.15.17l.06 1.24a.17.17 0 0 0 .16.17h.15a.17.17 0 0 0 .16-.17zm1.87-.52l-.06-1.19a.17.17 0 0 0-.17-.17h-.15a.17.17 0 0 0-.16.17l.06 1.19a.18.18 0 0 0 .17.17h.15a.17.17 0 0 0 .16-.17zm1.87-.19l-.06-1.21a.15.15 0 0 0-.16-.16h-.16a.17.17 0 0 0-.15.17l.06 1.21a.16.16 0 0 0 .16.17h.16a.15.15 0 0 0 .15-.18zm1.88.04l-.05-1.13a.18.18 0 0 0-.17-.17h-.15a.17.17 0 0 0-.16.17l.06 1.13a.17.17 0 0 0 .16.17h.16a.15.15 0 0 0 .15-.17zm1.89.41v-1.09a.17.17 0 0 0-.17-.17H110a.17.17 0 0 0-.16.18l.06 1.09a.17.17 0 0 0 .16.17h.16a.16.16 0 0 0 .1-.18zm1.91.93l-.06-1.19a.17.17 0 0 0-.17-.17h-.15a.17.17 0 0 0-.16.17l.06 1.19a.17.17 0 0 0 .17.16h.15a.17.17 0 0 0 .16-.16z" transform="translate(.37)"/><path class="cls-10" d="M258.05 308.93c-.66 1.87 3.77 5.13 9.89 7.27s11.61 2.36 12.27.48-3.77-5.13-9.89-7.28-11.62-2.35-12.27-.47z" transform="translate(.37)"/><path class="cls-98" d="M273.92 302.1l-.08-1.94-.45-1.13-.28.94.81 2.13z"/><path class="cls-99" d="M253.27 302.46l-.07-1.89s1.6 1.6 1.6 1.64-1.53.25-1.53.25z" transform="translate(.37)"/><path class="cls-99" d="M263.55 308.08c5.59-.13 10-3 9.91-7.92s-4.75-8.83-10.34-8.7-10 4.25-9.92 9.19 4.8 7.57 10.35 7.43z" transform="translate(.37)"/><path class="cls-99" d="M263.62 311.28c5.6-.13 10-4.24 9.92-9.18s-4.75-8.84-10.35-8.71-10 4.25-9.91 9.19 4.72 8.84 10.34 8.7z" transform="translate(.37)"/><path class="cls-98" d="M270.48 295.89a8.42 8.42 0 0 1 3.06 6.21c.12 4.94-4.32 9-9.92 9.18a10.74 10.74 0 0 1-7.16-2.4z" transform="translate(.37)"/><path class="cls-100" d="M263.61 310.88c5.35-.12 9.59-4.05 9.48-8.77s-4.54-8.45-9.89-8.32-9.59 4.06-9.47 8.78 4.54 8.43 9.88 8.31z" transform="translate(.37)"/><ellipse class="cls-101" cx="263.41" cy="302.34" rx="7.77" ry="6.86" transform="rotate(-1.37 264.251 287.156)"/><path class="cls-99" d="M255.64 302.52a3.53 3.53 0 0 1 0-.46c.35 3.56 3.79 6.3 7.9 6.21s7.41-3 7.6-6.58v.46c.09 3.79-3.32 7-7.61 7.05s-7.8-2.89-7.89-6.68z" transform="translate(.37)"/><path class="cls-99" d="M261.92 302.92l1.59-1.48c1.54.35 4.4 1 6.68 1.54a6.52 6.52 0 0 1-3.76 3.87zm2.51 4.45l-.78.06a7.46 7.46 0 0 1-4.87-1.61l2.6-2.41zm.79-7.51l3-2.79a5.79 5.79 0 0 1 2.16 3.16z" transform="translate(.37)"/><path class="cls-98" d="M263.65 296.3c-4.29.1-7.7 3.26-7.61 7a6.17 6.17 0 0 0 .46 2.19 6.12 6.12 0 0 1-.86-3c-.09-3.78 3.31-6.94 7.6-7a7.75 7.75 0 0 1 7.48 4.49 7.92 7.92 0 0 0-7.07-3.68zm9.81 3.86a6.72 6.72 0 0 1-.08 2c-.23-.72-.71-2.89-.71-2.89l-.77-1.73-.64-.53-1.09-.79-.09-2.48a8.47 8.47 0 0 1 3.38 6.42zm-19.61-.25v-.51a.13.13 0 0 0-.13-.13.15.15 0 0 0-.13.14v.51a.13.13 0 0 0 .12.13.13.13 0 0 0 .14-.14zm.89-1.91l-.05-.92a.14.14 0 0 0-.14-.14h-.09a.15.15 0 0 0-.14.15l.05.92a.15.15 0 0 0 .15.15h.09a.14.14 0 0 0 .13-.16zm1.26-1.74v-.89a.17.17 0 0 0-.17-.16h-.15a.17.17 0 0 0-.16.17l.05.89a.18.18 0 0 0 .17.17h.15a.17.17 0 0 0 .11-.18zm1.83-1.38l-.06-1.07a.17.17 0 0 0-.16-.17h-.16a.15.15 0 0 0-.15.17l.05 1.08a.16.16 0 0 0 .16.16h.16a.17.17 0 0 0 .16-.17zm1.85-.88l-.06-1.24a.16.16 0 0 0-.16-.16h-.15a.17.17 0 0 0-.16.18l.06 1.23a.17.17 0 0 0 .16.17h.16a.16.16 0 0 0 .15-.18zm1.87-.57l-.06-1.19a.15.15 0 0 0-.16-.16h-.16a.17.17 0 0 0-.15.17l.06 1.19a.16.16 0 0 0 .16.17h.16a.18.18 0 0 0 .15-.18zm1.88-.19l-.06-1.2a.17.17 0 0 0-.17-.17h-.15a.18.18 0 0 0-.16.18l.06 1.21a.17.17 0 0 0 .17.16h.15a.17.17 0 0 0 .16-.18zm1.88.04l-.06-1.13a.15.15 0 0 0-.16-.16h-.16a.16.16 0 0 0-.15.17l.05 1.14a.17.17 0 0 0 .17.16h.15a.17.17 0 0 0 .16-.18zm1.89.42l-.06-1.1a.17.17 0 0 0-.16-.17h-.16a.17.17 0 0 0-.15.17l.06 1.1a.15.15 0 0 0 .16.16h.11a.17.17 0 0 0 .2-.16zm1.9.92l-.06-1.19a.15.15 0 0 0-.16-.16h-.16a.17.17 0 0 0-.15.17l.06 1.19a.16.16 0 0 0 .16.17h.21a.17.17 0 0 0 .1-.18z" transform="translate(.37)"/><path class="cls-10" d="M289.73 329.29c-.66 1.88 3.77 5.13 9.89 7.27s11.61 2.36 12.27.48-3.77-5.13-9.89-7.27-11.61-2.36-12.27-.48z" transform="translate(.37)"/><path class="cls-98" d="M305.6 322.46l-.08-1.93-.45-1.13-.28.93.81 2.13z"/><path class="cls-99" d="M285 322.83l-.08-1.9s1.6 1.6 1.6 1.64-1.52.26-1.52.26z" transform="translate(.37)"/><path class="cls-99" d="M295.23 328.45c5.59-.14 10-3 9.92-7.92s-4.75-8.84-10.35-8.71-10 4.25-9.92 9.19 4.75 7.57 10.35 7.44z" transform="translate(.37)"/><ellipse class="cls-99" cx="295.09" cy="322.7" rx="10.14" ry="8.95" transform="rotate(-1.37 295.381 307.186)"/><path class="cls-98" d="M302.16 316.25a8.44 8.44 0 0 1 3.06 6.21c.12 4.94-4.32 9.05-9.91 9.18a10.84 10.84 0 0 1-7.17-2.39z" transform="translate(.37)"/><ellipse class="cls-100" cx="295.09" cy="322.7" rx="9.68" ry="8.55" transform="rotate(-1.37 295.8 307.191)"/><path class="cls-101" d="M295.26 329.56c4.29-.1 7.69-3.26 7.6-7.05s-3.64-6.77-7.93-6.67-7.7 3.26-7.61 7.05 3.68 6.77 7.94 6.67z" transform="translate(.37)"/><path class="cls-99" d="M287.32 322.89v-.47c.36 3.56 3.79 6.31 7.9 6.21s7.41-3 7.6-6.58a3.55 3.55 0 0 1 0 .46c.09 3.79-3.31 6.95-7.6 7.05s-7.81-2.88-7.9-6.67z" transform="translate(.37)"/><path class="cls-99" d="M293.6 323.28l1.59-1.48c1.54.35 4.4 1 6.68 1.54a6.49 6.49 0 0 1-3.76 3.87zm2.51 4.45c-.25 0-.51 0-.77.06a7.47 7.47 0 0 1-4.88-1.61l2.61-2.41zm.79-7.51l3-2.78a5.72 5.72 0 0 1 2.15 3.15z" transform="translate(.37)"/><path class="cls-98" d="M295.33 316.66c-4.29.1-7.69 3.26-7.6 7a6 6 0 0 0 .46 2.18 6.23 6.23 0 0 1-.87-3c-.09-3.79 3.31-6.95 7.61-7.05a7.75 7.75 0 0 1 7.47 4.49 7.93 7.93 0 0 0-7.07-3.62zm9.82 3.87a7 7 0 0 1-.09 2c-.22-.72-.71-2.89-.71-2.89l-.77-1.72-.64-.53-1.09-.8-.09-2.48a8.48 8.48 0 0 1 3.39 6.42zm-19.61-.26l-.05-.51a.12.12 0 0 0-.12-.13.12.12 0 0 0-.12.13v.51a.13.13 0 0 0 .13.13.13.13 0 0 0 .16-.13zm.89-1.95l-.06-.91a.14.14 0 0 0-.14-.15h-.09a.15.15 0 0 0-.14.16l.06.91a.15.15 0 0 0 .14.15h.09a.15.15 0 0 0 .14-.16zm1.23-1.7l-.05-.89a.16.16 0 0 0-.16-.16h-.16a.17.17 0 0 0-.16.17l.06.89a.16.16 0 0 0 .16.17h.16a.17.17 0 0 0 .15-.18zm1.85-1.37l-.06-1.08a.15.15 0 0 0-.16-.16h-.16a.17.17 0 0 0-.15.17v1.08a.17.17 0 0 0 .17.16h.15a.17.17 0 0 0 .21-.17zm1.86-.91l-.06-1.23a.18.18 0 0 0-.17-.17H291a.18.18 0 0 0-.16.18l.06 1.24a.17.17 0 0 0 .17.16h.15a.17.17 0 0 0 .15-.18zm1.86-.55l-.05-1.19a.17.17 0 0 0-.17-.16h-.15a.17.17 0 0 0-.16.18l.06 1.19a.16.16 0 0 0 .16.16h.16a.16.16 0 0 0 .15-.18zm1.88-.18l-.06-1.21a.16.16 0 0 0-.16-.17h-.16a.15.15 0 0 0-.15.17l.06 1.21a.15.15 0 0 0 .16.16h.2a.17.17 0 0 0 .11-.16zm1.89.04l-.06-1.14a.16.16 0 0 0-.16-.16h-.15a.17.17 0 0 0-.16.18l.06 1.13a.15.15 0 0 0 .16.16h.16a.17.17 0 0 0 .15-.17zm1.88.41l-.05-1.1a.17.17 0 0 0-.17-.16h-.15a.17.17 0 0 0-.16.17l.06 1.1a.17.17 0 0 0 .16.17h.16a.17.17 0 0 0 .15-.18zm1.9.94v-1.19a.17.17 0 0 0-.17-.16h-.15a.17.17 0 0 0-.16.18l.06 1.18a.17.17 0 0 0 .16.17h.16a.16.16 0 0 0 .1-.18z" transform="translate(.37)"/></svg>