<svg viewBox="0 0 105 100" xmlns="http://www.w3.org/2000/svg" fill-rule="evenodd" clip-rule="evenodd" stroke-linejoin="round" stroke-miterlimit="1.414"><path fill="none" d="M0 0h104.814v100H0z"/><g fill="#6376fa" fill-rule="nonzero"><path d="M16.897 89.909V60.678h-1.441c-.823 0-1.647 0-2.676.412.618-11.734 4.529-23.262 11.116-31.702 1.441 0 2.882-.617 4.117-1.441 15.851-13.174 33.966-12.145 48.376 2.882 1.235 1.441 3.088 2.059 4.941 2.059.617 0 1.235-.206 1.852-.206 5.353 8.234 8.235 18.321 8.646 28.408-.206 0-1.647-.618-3.911-.206v29.231c7.822 1.03 13.998-6.175 13.998-14.615 0-3.912-1.235-7.411-3.294-9.881v-2.265c0-13.792-4.117-26.349-10.704-35.818.412-2.059-.206-4.323-1.647-5.97-19.556-20.38-45.7-21.821-66.903-4.117-2.676 2.058-3.087 5.764-1.441 8.646C10.722 35.77 6.193 48.739 6.193 63.148v2.265c-2.059 2.676-3.294 6.175-3.294 9.881 0 9.057 6.793 15.645 13.998 14.615z"/><path d="M79.683 55.532h-.618c-2.058 0-3.911 1.647-3.911 3.911v31.496c0 2.058 1.647 3.911 3.911 3.911h.618c2.058 0 3.911-1.647 3.911-3.911V59.443c0-2.059-1.853-3.911-3.911-3.911zm-54.758 0c-2.058 0-3.911 1.647-3.911 3.911v31.496c0 2.058 1.647 3.911 3.911 3.911h.618c2.059 0 3.911-1.647 3.911-3.911V59.443c0-2.059-1.647-3.911-3.911-3.911h-.618z"/></g></svg>