<svg viewBox="0 0 100 100" xmlns="http://www.w3.org/2000/svg" fill-rule="evenodd" clip-rule="evenodd" stroke-linejoin="round" stroke-miterlimit="1.414"><path fill="none" d="M0 0h100v100H0z"/><g fill="#6376fa" fill-rule="nonzero"><path d="M88.38 20.491V6.944c0-.99-.803-1.794-1.794-1.794H15.029c-.99 0-1.794.804-1.794 1.794v13.547H88.38zm-15.707-7.882h4.83a1.794 1.794 0 1 1 0 3.588h-4.83a1.794 1.794 0 0 1 0-3.588zm-11.188 0h4.83a1.794 1.794 0 1 1 0 3.588h-4.83a1.794 1.794 0 1 1 0-3.588zm-38.903 0h9.153a1.794 1.794 0 0 1 0 3.588h-9.153a1.794 1.794 0 0 1 0-3.588zm28.226 29.057c-9.502 0-17.234 7.731-17.234 17.234 0 9.503 7.732 17.234 17.234 17.234 9.503 0 17.233-7.731 17.233-17.234 0-9.503-7.73-17.234-17.233-17.234z"/><path d="M13.235 24.079v68.977c0 .991.804 1.794 1.794 1.794h71.557c.991 0 1.794-.803 1.794-1.794V24.079H13.235zm37.573 59.23c-13.481 0-24.41-10.928-24.41-24.41 0-13.481 10.928-24.41 24.41-24.41 13.481 0 24.41 10.928 24.41 24.41 0 13.481-10.929 24.41-24.41 24.41z"/></g></svg>