<svg viewBox="0 0 53 90" xmlns="http://www.w3.org/2000/svg" fill-rule="evenodd" clip-rule="evenodd" stroke-linejoin="round" stroke-miterlimit="1.414"><path d="M46.852 0H5.788A5.782 5.782 0 0 0 0 5.788v78.124A5.782 5.782 0 0 0 5.788 89.7h41.064a5.782 5.782 0 0 0 5.788-5.788V5.799c0-3.2-2.587-5.799-5.788-5.799zm-26.9 5.152h12.747v.636H19.952v-.636zm9.636 76.908a3.28 3.28 0 0 1-3.268 3.268 3.28 3.28 0 0 1-3.268-3.268 3.28 3.28 0 0 1 3.268-3.267c1.796-.011 3.268 1.461 3.268 3.267zm18.569-5.732H4.483V10.015h43.674v66.313z" fill="#6376fa" fill-rule="nonzero"/></svg>