<svg viewBox="0 0 141 100" xmlns="http://www.w3.org/2000/svg" fill-rule="evenodd" clip-rule="evenodd" stroke-linejoin="round" stroke-miterlimit="1.414"><path fill="none" d="M0 0h140.439v100H0z"/><path d="M117.782 5.15H22.653a4.076 4.076 0 0 0-4.079 4.079v57.083a4.08 4.08 0 0 0 4.079 4.078h95.128a4.082 4.082 0 0 0 4.078-4.078V9.229a4.07 4.07 0 0 0-4.077-4.079zm-1.347 59.795H24.013v-54.36h92.422v54.36zm5.571 8.179c-.819-.757-2.416-1.379-3.532-1.379H21.969c-1.12 0-2.707.622-3.527 1.379L2.265 88.049v2.722s0 4.079 4.078 4.079h127.752c4.079 0 4.079-4.079 4.079-4.079v-2.722l-16.168-14.925zm-69.644 8.639h35.713l2.754 4.436H49.607l2.755-4.436zm27.368 7.653c0 .746-.61 1.355-1.356 1.355H62.065a1.356 1.356 0 0 1-1.357-1.355v-1.367h19.021v1.367h.001z" fill="#6376fa" fill-rule="nonzero"/></svg>